<svg width="558" height="539" viewBox="0 0 558 539" fill="none" xmlns="http://www.w3.org/2000/svg">
<path d="M542.813 40.09H410.999V177.497H542.813V40.09Z" fill="#E0E0E0"/>
<path d="M533.886 40.09H402.072V177.497H533.886V40.09Z" fill="#FAFAFA"/>
<path d="M533.923 177.534H402.023V40.0405H533.923V177.534ZM402.109 177.448H533.837V40.127H402.109V177.448Z" fill="#E0E0E0"/>
<path d="M516.169 58.5608H419.79V159.026H516.169V58.5608Z" fill="#FAFAFA"/>
<path d="M419.79 159.681C419.11 160.695 418.31 161.624 417.407 162.446C415.876 164.076 413.703 166.274 411.234 168.62C408.764 170.966 406.579 173.139 404.937 174.645C404.106 175.526 403.174 176.306 402.159 176.966C402.838 175.962 403.629 175.038 404.517 174.213C406.06 172.596 408.221 170.385 410.69 168.04C413.16 165.694 415.357 163.521 416.999 162.002C417.835 161.121 418.772 160.342 419.79 159.681Z" fill="#E0E0E0"/>
<path d="M516.169 159.434C517.175 160.12 518.099 160.92 518.922 161.817C520.552 163.36 522.75 165.521 525.096 167.99C527.442 170.459 529.615 172.645 531.133 174.287C532.015 175.119 532.79 176.056 533.442 177.077C532.44 176.391 531.517 175.596 530.689 174.707C529.071 173.163 526.861 171.003 524.515 168.533C522.169 166.064 519.996 163.866 518.49 162.224C517.597 161.401 516.816 160.462 516.169 159.434Z" fill="#E0E0E0"/>
<path d="M515.897 58.82C516.585 57.8112 517.384 56.8834 518.28 56.0544C519.811 54.4369 521.984 52.2392 524.454 49.881C526.923 47.5227 529.109 45.3744 530.751 43.8557C531.589 42.9778 532.525 42.199 533.541 41.5345C532.862 42.5426 532.066 43.4668 531.17 44.2879C529.627 45.9177 527.466 48.1154 524.997 50.4613C522.528 52.8072 520.33 54.9925 518.688 56.4988C517.861 57.389 516.923 58.1691 515.897 58.82Z" fill="#E0E0E0"/>
<path d="M419.531 59.067C418.518 58.3895 417.589 57.5937 416.765 56.6964C415.135 55.153 412.937 52.9923 410.592 50.523C408.246 48.0536 406.073 45.8806 404.554 44.2385C403.676 43.4036 402.901 42.4669 402.245 41.4481C403.251 42.1297 404.175 42.9251 404.998 43.8187C406.616 45.3497 408.826 47.5227 411.172 49.9921C413.518 52.4614 415.691 54.6592 417.209 56.3013C418.087 57.1306 418.866 58.0587 419.531 59.067Z" fill="#E0E0E0"/>
<path d="M515.897 159.014C515.897 159.014 515.897 158.841 515.897 158.533C515.897 158.224 515.897 157.73 515.897 157.125C515.897 155.89 515.897 154.051 515.897 151.705C515.897 146.939 515.897 140.025 515.798 131.234C515.798 113.64 515.687 88.5634 515.613 58.5607L515.984 58.9311H419.889L420.308 58.5113C420.308 95.3788 420.308 129.876 420.308 158.965L419.938 158.607L489.524 158.792L509.069 158.891H514.243H515.576H516.045C515.906 158.903 515.765 158.903 515.625 158.891H514.329H509.23L489.759 158.989L419.938 159.175H419.568V158.804C419.568 129.715 419.568 95.2183 419.506 58.3508V57.9187H419.95H516.045H516.416V58.2891C516.342 88.3905 516.28 113.541 516.231 131.197C516.231 139.951 516.156 146.853 516.132 151.581C516.132 153.903 516.132 155.693 516.132 156.94C516.132 157.52 516.132 157.965 516.132 158.298C516.088 158.547 516.009 158.788 515.897 159.014Z" fill="#E0E0E0"/>
<path d="M470.794 97.9717C469.059 95.4004 466.663 93.3436 463.859 92.017C461.054 90.6904 457.945 90.143 454.856 90.4322C451.767 90.7214 448.813 91.8365 446.304 93.6605C443.795 95.4846 441.822 97.9503 440.594 100.799C439.634 103.226 439.161 105.819 439.204 108.429C439.246 111.039 439.802 113.615 440.841 116.01C442.962 120.798 446.417 124.875 450.793 127.752C462.065 135.432 478.4 135.086 488.882 126.357C492.918 123.216 495.664 118.705 496.599 113.677C497.029 110.758 496.632 107.776 495.452 105.072C494.273 102.367 492.359 100.047 489.927 98.3753C487.496 96.7037 484.644 95.7474 481.696 95.6149C478.749 95.4825 475.823 96.1792 473.251 97.626" fill="#FF4D4D"/>
<path d="M470.844 97.9593C470.472 96.5926 469.628 95.4015 468.462 94.5971C467.296 93.7926 465.883 93.4266 464.473 93.5639L468.239 98.0458C467.207 98.1936 466.233 98.6151 465.419 99.2665C464.605 99.9178 463.98 100.775 463.609 101.75C463.424 102.207 463.374 102.849 463.806 103.083C463.963 103.131 464.128 103.147 464.292 103.13C464.455 103.113 464.613 103.063 464.757 102.984L469.338 101.083C469.653 103.641 470.59 106.082 472.066 108.195C473.117 105.952 473.705 103.521 473.795 101.046L478.857 103.281C478.451 101.836 477.621 100.545 476.474 99.5768C477.974 99.2849 479.409 98.7244 480.709 97.9223C481.104 97.6754 481.536 97.2556 481.351 96.8358C481.166 96.416 480.808 96.416 480.45 96.3913C477.107 96.0669 473.745 96.7643 470.807 98.3915" fill="#81B214"/>
<path d="M470.511 99.8483C471.302 94.7269 470.879 89.4911 469.276 84.563C470.511 84.2914 471.967 84.1185 472.745 85.0692C473.143 85.6746 473.322 86.3979 473.252 87.1188C473.31 91.949 472.39 96.7411 470.548 101.206" fill="#81B214"/>
<path d="M445.928 118.183C445.626 117.961 445.36 117.695 445.138 117.393C444.485 116.604 443.917 115.747 443.446 114.837C441.839 111.819 441.27 108.355 441.828 104.98C442.386 101.606 444.039 98.5097 446.533 96.169C447.286 95.4597 448.114 94.8346 449.002 94.3047C449.305 94.0842 449.643 93.9172 450.002 93.8108C448.896 94.6219 447.845 95.5045 446.854 96.453C444.518 98.7969 442.972 101.812 442.432 105.076C441.892 108.341 442.385 111.693 443.841 114.664C444.461 115.881 445.158 117.056 445.928 118.183Z" fill="white"/>
<path d="M451.002 122.036C451.002 122.171 450.15 122.036 449.348 121.418C448.545 120.801 448.113 120.183 448.237 120.06C448.36 119.937 448.928 120.443 449.669 120.974C450.41 121.505 451.064 121.887 451.002 122.036Z" fill="white"/>
<path d="M245.244 0.0617676H61.6597V191.437H245.244V0.0617676Z" fill="#E0E0E0"/>
<path d="M232.811 0.0617676H49.2266V191.437H232.811V0.0617676Z" fill="#FAFAFA"/>
<path d="M232.872 191.486H49.1646V0H232.872V191.486ZM49.3127 191.375H232.749V0.111121H49.3127V191.375Z" fill="#E0E0E0"/>
<path d="M208.129 25.78H73.9077V165.694H208.129V25.78Z" fill="#FAFAFA"/>
<path d="M73.9076 166.632C72.9531 168.037 71.8431 169.329 70.5987 170.484C68.4503 172.744 65.4377 175.806 62.0671 179.127C58.6964 182.448 55.585 185.412 53.2885 187.51C50.992 189.609 49.5845 190.869 49.4116 190.745C50.359 189.343 51.4652 188.054 52.7082 186.905C54.8565 184.646 57.8692 181.584 61.2645 178.263C64.6599 174.941 67.7589 171.954 70.0431 169.842C72.3272 167.731 73.7965 166.509 73.9076 166.632Z" fill="#E0E0E0"/>
<path d="M208.129 166.336C209.535 167.293 210.828 168.407 211.981 169.657C214.241 171.793 217.303 174.806 220.624 178.189C223.945 181.572 226.908 184.658 229.02 186.955C230.246 188.113 231.328 189.415 232.242 190.832C230.842 189.886 229.558 188.779 228.415 187.535C226.143 185.399 223.081 182.374 219.772 178.991C216.463 175.608 213.463 172.484 211.364 170.2C209.265 167.916 208.005 166.397 208.129 166.336Z" fill="#E0E0E0"/>
<path d="M207.759 26.1628C208.704 24.755 209.811 23.4622 211.055 22.3106C213.191 20.0388 216.204 16.9768 219.587 13.6679C222.97 10.3589 226.069 7.38337 228.353 5.27207C229.511 4.04604 230.813 2.96407 232.23 2.04956C232.354 2.16068 231.082 3.6176 228.933 5.87706C226.785 8.13652 223.773 11.2109 220.39 14.5198C217.007 17.8287 213.895 20.829 211.599 22.928C209.302 25.0269 207.87 26.2863 207.759 26.1628Z" fill="#E0E0E0"/>
<path d="M73.5372 26.4962C72.1253 25.5514 70.8319 24.4405 69.685 23.1872C67.4256 21.0389 64.3636 18.0386 61.0423 14.6556C57.721 11.2726 54.7454 8.17355 52.6465 5.8894C51.4226 4.7259 50.3371 3.42499 49.4116 2.01251C49.5351 1.88905 50.992 3.16076 53.2515 5.29675C55.5109 7.43275 58.5853 10.4701 61.8942 13.8531C65.2031 17.2361 68.1911 20.3475 70.3024 22.644C71.5282 23.7965 72.614 25.0895 73.5372 26.4962Z" fill="#E0E0E0"/>
<path d="M207.759 165.706C207.759 165.706 207.759 165.459 207.759 165.027C207.759 164.595 207.759 163.903 207.759 163.076C207.759 161.306 207.759 158.788 207.759 155.52C207.759 148.89 207.685 139.247 207.623 126.999C207.623 102.49 207.463 67.5861 207.364 25.7553L207.87 26.2738L74.0312 26.3479L74.6238 25.7553C74.6238 77.1178 74.5621 125.159 74.5374 165.681L74.0312 165.163L170.953 165.434L198.178 165.558L205.376 165.619H207.241C207.454 165.604 207.669 165.604 207.883 165.619C207.689 165.631 207.495 165.631 207.302 165.619H205.487L198.388 165.681L171.225 165.817L73.9818 166.076H73.4756V165.57C73.4756 125.048 73.4139 77.0067 73.3892 25.6442V25.0515H73.9941L207.833 25.1256H208.364V25.6442C208.265 67.6232 208.167 102.614 208.105 127.196C208.105 139.395 208.006 149.001 207.969 155.594C207.969 158.829 207.969 161.323 207.907 163.002C207.907 163.805 207.907 164.434 207.907 164.891C207.888 165.167 207.839 165.441 207.759 165.706Z" fill="#E0E0E0"/>
<path d="M140.444 52.1281C139.987 53.6714 132.123 66.0676 120.788 70.2778C109.454 74.4881 101.033 79.1551 104.17 84.6988C107.306 90.2425 121.245 87.2299 121.245 87.2299C121.245 87.2299 92.9833 117.949 119.591 135.506C152.026 156.903 185.93 80.2787 185.93 80.2787L140.444 52.1281Z" fill="#81B214"/>
<path d="M180.583 90.7982C180.497 90.9464 169.805 84.6248 156.705 76.5624C143.605 68.4999 133.048 61.9561 133.135 61.7462C133.221 61.5363 143.914 67.9196 157.026 75.9821C170.138 84.0445 180.67 90.65 180.583 90.7982Z" fill="#BFDCAE"/>
<path d="M175.571 99.9842C175.472 100.132 163.928 93.354 149.766 84.8471C135.604 76.3401 124.196 69.3272 124.282 69.179C124.369 69.0309 135.913 75.8092 150.087 84.3162C164.261 92.8231 175.657 99.8361 175.571 99.9842Z" fill="#BFDCAE"/>
<path d="M169.508 108.689C169.409 108.837 156.445 101.207 140.53 91.6501C124.615 82.0937 111.787 74.2165 111.873 74.0806C111.96 73.9448 124.936 81.5628 140.851 91.1192C156.766 100.676 169.595 108.553 169.508 108.689Z" fill="#BFDCAE"/>
<path d="M161.94 119.418C161.841 119.566 151.791 113.43 139.481 105.725C127.171 98.0211 117.257 91.6501 117.356 91.5143C117.454 91.3785 127.492 97.5025 139.814 105.207C152.137 112.911 162.026 119.319 161.94 119.418Z" fill="#BFDCAE"/>
<path d="M153.026 129.876C152.939 130.012 143.58 123.974 132.123 116.381C120.665 108.787 111.466 102.515 111.553 102.379C111.639 102.244 121.01 108.281 132.468 115.874C143.926 123.468 153.137 129.728 153.026 129.876Z" fill="#BFDCAE"/>
<path d="M141.691 137.086C141.195 136.918 140.718 136.694 140.272 136.42C139.383 135.963 138.098 135.259 136.567 134.382C133.431 132.617 129.159 130.073 124.529 127.11C119.899 124.147 115.813 121.319 112.899 119.208C111.442 118.146 110.281 117.282 109.491 116.665C109.042 116.376 108.628 116.036 108.256 115.652C108.727 115.878 109.174 116.151 109.59 116.467L113.121 118.85C116.097 120.875 120.208 123.641 124.826 126.591C129.443 129.542 133.678 132.148 136.753 134L140.457 136.222C140.897 136.467 141.311 136.756 141.691 137.086Z" fill="#BFDCAE"/>
<path d="M115.084 87.9214C112.837 87.3555 110.711 86.3848 108.812 85.0569C106.809 83.8934 105.032 82.3795 103.564 80.5874C103.688 80.4516 105.96 82.5258 109.145 84.5383C112.331 86.5509 115.158 87.7608 115.084 87.9214Z" fill="#BFDCAE"/>
<path d="M183.818 78.6736C183.705 78.909 183.569 79.1324 183.411 79.3403L182.176 81.1676C181.077 82.7604 179.448 85.0322 177.41 87.8349C173.336 93.4156 167.533 101.046 161.026 109.318C154.519 117.591 148.321 124.9 143.741 130.135C141.481 132.752 139.642 134.851 138.345 136.308L136.876 137.938C136.712 138.143 136.525 138.329 136.32 138.494C136.456 138.269 136.613 138.058 136.789 137.864L138.197 136.148L143.457 129.863C147.889 124.567 153.964 117.196 160.52 108.948C167.076 100.7 172.867 93.107 177.04 87.588L181.979 81.0442L183.337 79.2786C183.482 79.0651 183.643 78.8629 183.818 78.6736Z" fill="#BFDCAE"/>
<path d="M174.62 72.1299C174.756 72.241 163.508 86.946 149.457 104.972C135.407 122.999 123.936 137.543 123.813 137.432C123.69 137.321 134.925 122.616 148.976 104.59C163.026 86.5633 174.484 72.0311 174.62 72.1299Z" fill="#BFDCAE"/>
<path d="M161.792 64.8577C161.705 65.115 161.585 65.3599 161.434 65.5861L160.274 67.6233C159.261 69.3766 157.73 71.8953 155.755 74.9326C151.816 81.106 145.964 89.1932 139.049 97.8606C132.135 106.528 125.629 114.146 120.924 119.665L115.319 126.172L113.763 127.925C113.597 128.139 113.406 128.334 113.195 128.505C113.336 128.273 113.497 128.054 113.677 127.851L115.134 126.024L120.591 119.393C125.221 113.8 131.703 106.145 138.568 97.4778C145.433 88.8104 151.372 80.7233 155.384 74.698C157.409 71.6854 158.99 69.2161 160.076 67.4999L161.311 65.5244C161.454 65.2904 161.615 65.0675 161.792 64.8577Z" fill="#BFDCAE"/>
<path d="M151.272 58.8324C151.408 58.9311 141.802 71.6483 129.826 87.2299C117.85 102.812 108.022 115.356 107.886 115.257C107.75 115.158 117.356 102.441 129.332 86.8595C141.308 71.2779 151.136 58.7336 151.272 58.8324Z" fill="#BFDCAE"/>
<path d="M143.358 53.6714C143.06 54.2615 142.721 54.8307 142.346 55.3752C142 55.9185 141.58 56.6099 141.037 57.289C140.494 57.9681 139.926 58.8694 139.185 59.7583C137.532 61.8502 135.75 63.8377 133.851 65.7095C131.526 67.9908 129.051 70.115 126.443 72.0681C123.798 73.9838 121.031 75.7243 118.159 77.2784C115.805 78.5293 113.376 79.6344 110.886 80.5874C109.837 81.0318 108.849 81.3282 107.997 81.6245C107.145 81.9208 106.392 82.1307 105.775 82.2912C105.148 82.502 104.503 82.6549 103.849 82.748C104.447 82.4731 105.066 82.246 105.701 82.069C106.306 81.8714 107.046 81.6245 107.874 81.3035C108.701 80.9824 109.689 80.6491 110.726 80.1923C113.173 79.1817 115.563 78.04 117.887 76.7722C120.726 75.2093 123.465 73.4691 126.085 71.5619C128.681 69.6297 131.155 67.5391 133.493 65.302C135.397 63.4639 137.198 61.5225 138.889 59.4867C139.642 58.6348 140.235 57.8076 140.803 57.1038C141.37 56.4 141.815 55.7827 142.185 55.2641C142.532 54.702 142.924 54.1693 143.358 53.6714Z" fill="#BFDCAE"/>
<path d="M108.639 424.013C108.108 424.136 112.083 444.163 112.083 444.163H122.294L126.801 424.803C120.947 422.805 114.643 422.531 108.639 424.013Z" fill="#E0E0E0"/>
<path d="M102.49 536.739C102.49 536.739 87.4768 494.76 89.5757 483.29C91.6747 471.819 96.1936 469.474 99.7865 465.868C103.379 462.263 106.404 459.263 107.306 455.658C108.207 452.052 107.306 437.631 107.306 437.631C107.306 437.631 104.602 433.433 105.503 431.927C106.404 430.421 128.629 431.927 128.629 431.927C128.503 433.763 127.88 435.53 126.826 437.039C126.826 437.039 126.221 453.855 127.122 455.658C128.024 457.46 141.84 472.783 143.939 480.586C146.038 488.389 135.642 536.739 135.642 536.739H102.49Z" fill="#F5F5F5"/>
<path d="M102.49 536.739C102.688 536.728 102.885 536.728 103.083 536.739H104.774H111.293L135.641 536.628L135.444 536.788C136.678 530.615 138.111 523.75 139.518 516.12C140.926 508.489 142.383 500.18 143.407 491.266C143.642 489.031 143.864 486.759 143.914 484.462C143.968 483.322 143.898 482.18 143.704 481.055C143.405 479.933 142.991 478.845 142.469 477.808C140.171 473.531 137.489 469.473 134.456 465.683C132.937 463.708 131.369 461.744 129.777 459.757C128.974 458.769 128.171 457.781 127.394 456.744C127.189 456.475 126.999 456.195 126.826 455.904C126.697 455.571 126.61 455.222 126.566 454.867C126.468 454.213 126.431 453.571 126.394 452.916C126.171 447.718 126.319 442.446 126.48 437.113V437.026V436.94C126.735 436.543 126.966 436.13 127.171 435.705C127.762 434.551 128.122 433.293 128.233 432.001L128.53 432.322C123.455 432.001 118.455 431.754 113.553 431.668C111.146 431.581 108.735 431.675 106.342 431.952C106.124 431.992 105.912 432.062 105.713 432.162C105.598 432.364 105.546 432.596 105.565 432.828C105.602 433.386 105.723 433.936 105.923 434.458C106.346 435.535 106.871 436.568 107.491 437.545V437.619V437.693C107.713 441.533 107.861 445.311 107.873 449.027C107.903 450.878 107.833 452.728 107.663 454.571C107.436 456.412 106.748 458.166 105.663 459.67C104.634 461.117 103.49 462.48 102.243 463.745C101.009 464.979 99.7739 466.214 98.5392 467.387C97.2825 468.481 96.0988 469.657 94.9957 470.906C94.0167 472.123 93.1876 473.454 92.5264 474.869C91.2089 477.685 90.2985 480.674 89.8224 483.746C89.6683 485.212 89.6683 486.689 89.8224 488.154C89.9212 489.611 90.1187 491.031 90.3286 492.439C91.2176 498.007 92.5017 503.094 93.6993 507.699C96.1686 516.885 98.4898 524.12 100.095 529.084C100.897 531.553 101.527 533.454 101.959 534.776C102.169 535.405 102.33 535.887 102.441 536.245C102.552 536.603 102.589 536.751 102.589 536.751L102.391 536.257C102.268 535.911 102.083 535.43 101.861 534.813C101.391 533.578 100.725 531.627 99.885 529.158C98.2182 524.219 95.8353 516.984 93.3165 507.798C91.9028 502.765 90.7489 497.664 89.8594 492.513C89.6496 491.105 89.4397 489.673 89.3285 488.191C89.1685 486.689 89.1685 485.174 89.3285 483.672C89.7926 480.544 90.7076 477.5 92.0448 474.634C92.7702 473.141 93.6785 471.743 94.7488 470.474C95.8713 469.207 97.0713 468.011 98.3417 466.893C99.5764 465.757 100.811 464.522 102.046 463.275C103.273 462.035 104.393 460.693 105.392 459.263C106.428 457.838 107.083 456.172 107.293 454.423C107.453 452.604 107.519 450.779 107.491 448.953C107.491 445.249 107.305 441.545 107.083 437.656V437.804C106.439 436.79 105.898 435.715 105.466 434.594C105.228 434.008 105.09 433.386 105.058 432.754C105.033 432.384 105.128 432.016 105.33 431.705C105.613 431.456 105.967 431.3 106.342 431.26C108.775 430.964 111.228 430.865 113.676 430.964C118.615 431.038 123.554 431.285 128.69 431.606H129.011V431.902C128.918 433.313 128.531 434.688 127.875 435.94C127.655 436.364 127.412 436.776 127.147 437.174L127.208 437.014C127.048 442.335 126.9 447.607 127.122 452.756C127.143 453.388 127.197 454.019 127.283 454.645C127.317 454.935 127.383 455.221 127.48 455.497C127.636 455.755 127.809 456.003 127.999 456.238C128.752 457.263 129.567 458.25 130.357 459.238C131.95 461.226 133.518 463.189 135.036 465.177C138.096 469.002 140.795 473.102 143.099 477.425C143.623 478.504 144.036 479.633 144.333 480.796C144.531 481.97 144.601 483.162 144.543 484.351C144.543 486.685 144.272 488.969 144.025 491.204C142.975 500.155 141.457 508.489 140.049 516.095C138.642 523.701 137.197 530.639 135.888 536.751V536.924H135.715L111.269 536.825H104.787H103.12L102.49 536.739Z" fill="#E0E0E0"/>
<path d="M132.764 532.393C136.573 518.341 139.098 503.972 140.308 489.463C140.432 487.809 140.432 485.895 139.185 484.796C137.654 483.463 135.308 484.179 133.369 484.796C127.671 486.598 121.608 486.921 115.751 485.734C110.059 484.561 104.416 481.956 98.675 482.895C97.9571 482.966 97.2605 483.178 96.6248 483.519C95.9892 483.86 95.4272 484.324 94.9709 484.882C94.0326 486.265 94.2548 488.093 94.5265 489.735C96.7736 503.847 101.379 520.083 105.12 532.393H132.764Z" fill="#A9D6FF"/>
<path d="M136.543 486.524C136.236 486.981 135.87 487.396 135.456 487.759C134.389 488.742 133.246 489.638 132.036 490.438C128.043 493.178 123.453 494.923 118.648 495.527C113.843 496.13 108.963 495.575 104.417 493.908C103.05 493.412 101.725 492.809 100.453 492.105C99.97 491.87 99.5179 491.576 99.1074 491.229C99.1692 491.118 101.108 492.327 104.565 493.476C109.056 494.993 113.833 495.474 118.537 494.884C123.24 494.294 127.75 492.648 131.728 490.068C134.876 488.093 136.456 486.438 136.543 486.524Z" fill="white"/>
<path d="M386.973 258.504C383.128 258.932 379.248 258.932 375.404 258.504C379.248 258.076 383.128 258.076 386.973 258.504Z" fill="#FAFAFA"/>
<path d="M558 538.319C558 538.504 433.088 538.653 279.037 538.653C124.986 538.653 0 538.504 0 538.319C0 538.134 124.875 537.974 278.963 537.974C433.051 537.974 558 538.146 558 538.319Z" fill="#263238"/>
<path d="M446.36 468.622C452.373 464.3 458.497 459.917 465.46 457.386C472.424 454.855 480.474 454.361 487.067 457.756C492.586 460.596 496.562 465.905 498.846 471.684C501.664 478.859 502.14 486.742 500.204 494.204C499.155 498.229 497.068 502.39 493.241 504.02C489.413 505.65 485.005 504.242 481.203 502.538C468.722 496.931 457.912 488.18 449.829 477.141C450.642 476.492 451.629 476.096 452.665 476.004C453.702 475.912 454.742 476.127 455.657 476.622C457.465 477.642 459.109 478.928 460.534 480.438C465.362 484.812 471.186 487.94 477.499 489.549C482.166 490.784 488.45 490.229 490.018 485.673C491.043 482.697 489.413 479.499 487.833 476.795C486.03 473.671 483.968 470.326 480.585 469.078C478.042 468.152 475.239 468.597 472.572 469.078L443.458 474.079L445.261 473.548" fill="#455A64"/>
<path d="M373.675 75.9448C354.476 70.5863 326.029 78.0438 315.164 94.749C304.298 111.454 309.089 136.246 308.237 156.149C307.385 176.052 308.237 196.276 303.41 215.624C300.372 227.971 294.557 240.317 283.865 247.17C271.641 254.948 253.319 255.714 247.528 268.999C242.7 280.111 250.195 293.692 245.318 304.805C243.17 309.743 238.811 313.447 236.935 318.448C234.342 325.387 237.181 333.461 242.281 338.832C247.38 344.203 254.356 347.352 261.307 349.944C282.484 357.701 304.994 361.164 327.523 360.13C343.907 359.365 361.489 355.488 372.23 343.104C380.663 333.375 383.441 320.041 384.972 307.299C394.381 228.489 396.084 141.852 373.675 76.0683" fill="#263238"/>
<path d="M266.616 315.102C266.776 315.015 265.9 313.534 265.023 310.583C263.876 306.41 263.632 302.041 264.307 297.767C265.33 291.43 267.696 285.385 271.246 280.037C275.185 273.962 280.889 268.258 287.149 262.64C293.408 257.023 299.644 251.825 304.669 246.404C309.201 241.661 312.974 236.247 315.855 230.354C317.78 226.363 318.976 222.06 319.386 217.649C319.472 216.453 319.472 215.252 319.386 214.056C319.386 213.229 319.287 212.821 319.226 212.821C318.855 212.722 319.843 219.982 314.879 229.909C311.922 235.614 308.14 240.851 303.656 245.454C298.718 250.75 292.458 255.874 286.149 261.505C279.839 267.135 274.086 272.975 270.098 279.272C266.489 284.802 264.153 291.064 263.258 297.606C262.665 302.018 263.087 306.507 264.492 310.731C264.885 311.869 265.381 312.968 265.974 314.015C266.135 314.406 266.351 314.772 266.616 315.102Z" fill="#455A64"/>
<path d="M314.904 456.25L308.484 536.936L501.378 537.887L448.941 464.152L314.904 456.25Z" fill="#263238"/>
<path d="M162.409 262.184C162.952 262.653 151.112 325.831 145.123 357.464C144.123 362.756 144.627 368.222 146.579 373.242C148.53 378.262 151.85 382.634 156.161 385.861C160.616 389.192 165.941 391.161 171.491 391.529C177.042 391.897 182.58 390.649 187.436 387.936L267.752 346.142L243.157 294.643L192.535 323.374L195.869 269.802L162.409 262.184Z" fill="#FFBE9D"/>
<path d="M189.831 211.945C189.263 209.685 186.411 208.66 184.139 209.228C181.924 210.004 179.949 211.345 178.41 213.117L171.916 217.056C170.691 217.87 169.681 218.969 168.976 220.26C168.27 221.55 167.889 222.993 167.866 224.464C167.834 227.4 168.289 230.32 169.212 233.107C169.891 235.576 170.854 238.379 173.237 239.28C175.892 240.268 178.83 238.218 180.077 235.675C181.324 233.132 181.448 230.23 182.102 227.477C182.891 224.174 184.452 221.106 186.658 218.525C188.3 216.587 190.461 214.414 189.831 211.945Z" fill="#EB996E"/>
<path d="M135.876 214.488C135.675 213.858 135.632 213.189 135.752 212.539C135.871 211.889 136.148 211.278 136.56 210.76C136.971 210.243 137.503 209.835 138.11 209.572C138.716 209.309 139.378 209.199 140.037 209.253C153.223 210.34 184.547 214.723 203.129 220.069C229.477 227.65 246.824 232.551 246.824 232.551L302.78 231.317C302.78 231.317 296.063 250.602 274.74 250.701C258.603 250.775 241.675 240.404 241.675 240.404C241.675 240.404 169.965 215.982 139.852 217.303C138.972 217.342 138.105 217.088 137.385 216.581C136.666 216.073 136.135 215.342 135.876 214.5V214.488Z" fill="#455A64"/>
<path d="M292.322 231.477C293.013 233.44 290.729 235.181 288.692 235.552C286.655 235.922 284.321 235.823 282.852 237.28C282.331 237.906 281.951 238.637 281.738 239.424C281.525 240.21 281.484 241.033 281.617 241.836C281.909 243.436 282.102 245.053 282.198 246.676C282.229 247.779 281.846 248.854 281.123 249.689C279.654 251.183 276.95 250.676 275.53 249.145C274.23 247.481 273.522 245.43 273.518 243.318C273.499 241.822 273.279 240.335 272.863 238.898C272.644 238.179 272.237 237.532 271.683 237.024C271.129 236.516 270.45 236.165 269.715 236.008C267.949 235.786 266.394 237.12 264.702 237.712C263.816 237.963 262.885 238.019 261.975 237.876C261.065 237.734 260.196 237.396 259.429 236.885C258.662 236.375 258.014 235.705 257.53 234.92C257.047 234.136 256.739 233.256 256.627 232.341L292.322 231.477Z" fill="#81B214"/>
<path d="M156.038 211.414C155.161 211.902 154.254 212.335 153.322 212.71C148.806 214.544 143.916 215.272 139.062 214.834C138.061 214.752 137.067 214.603 136.086 214.389C136.086 214.389 136.37 214.389 136.876 214.5C137.382 214.612 138.111 214.661 139.062 214.735C141.475 214.929 143.902 214.846 146.297 214.488C148.688 214.128 151.032 213.502 153.285 212.624C154.149 212.278 154.841 211.982 155.31 211.747L156.038 211.414Z" fill="#263238"/>
<path d="M180.584 214.957H180.349L179.682 214.883C179.102 214.809 178.263 214.735 177.213 214.673C174.498 214.511 171.773 214.652 169.089 215.093C166.407 215.55 163.783 216.295 161.261 217.315C160.298 217.723 159.52 218.069 159.002 218.328L158.397 218.612L158.174 218.698C158.174 218.698 158.236 218.698 158.372 218.562L158.952 218.229C159.471 217.945 160.187 217.575 161.199 217.155C163.714 216.072 166.351 215.297 169.052 214.846C171.752 214.402 174.496 214.282 177.225 214.488C178.275 214.574 179.114 214.686 179.695 214.784L180.361 214.908L180.584 214.957Z" fill="#263238"/>
<path d="M198.931 224.254L196.35 223.489L193.338 222.575C192.685 222.428 192.091 222.088 191.634 221.6C191.52 221.453 191.443 221.281 191.411 221.098C191.378 220.915 191.391 220.727 191.449 220.55C191.516 220.366 191.626 220.201 191.77 220.068C191.914 219.934 192.087 219.837 192.276 219.785C193.081 219.539 193.94 219.539 194.745 219.785C195.573 219.945 196.437 220.13 197.313 220.377C199.181 220.903 200.996 221.601 202.734 222.464C203.647 222.921 204.573 223.427 205.475 223.995C205.954 224.252 206.374 224.605 206.709 225.032C206.795 225.152 206.849 225.292 206.867 225.439C206.884 225.586 206.864 225.735 206.808 225.872C206.677 226.132 206.459 226.337 206.191 226.452C204.026 227.286 201.682 227.546 199.388 227.205C194.634 226.6 190.621 224.316 187.041 222.439C183.922 220.592 180.536 219.238 177.003 218.427C174.61 217.923 172.129 218.016 169.78 218.698C169.145 218.898 168.53 219.154 167.94 219.464C167.545 219.686 167.335 219.785 167.335 219.785L167.842 219.427C168.425 219.107 169.037 218.842 169.669 218.636C172.03 217.93 174.529 217.824 176.941 218.328C180.485 219.129 183.884 220.474 187.016 222.316C190.609 224.192 194.622 226.464 199.363 227.069C201.632 227.403 203.95 227.148 206.092 226.328C206.339 226.233 206.542 226.048 206.66 225.81C206.703 225.69 206.718 225.562 206.703 225.435C206.688 225.309 206.644 225.188 206.573 225.081C206.234 224.671 205.814 224.334 205.339 224.094C204.458 223.534 203.547 223.023 202.61 222.563C200.876 221.7 199.066 221.002 197.202 220.476C196.338 220.229 195.474 220.032 194.647 219.859C193.876 219.636 193.059 219.636 192.288 219.859C192.114 219.913 191.953 220.006 191.819 220.129C191.684 220.253 191.579 220.405 191.51 220.575C191.455 220.738 191.441 220.913 191.469 221.083C191.497 221.253 191.566 221.413 191.671 221.55C192.118 222.031 192.698 222.366 193.338 222.513L196.35 223.439L198.931 224.254Z" fill="#263238"/>
<path d="M211.944 223.131C212.167 223.512 212.318 223.93 212.389 224.365C212.59 225.374 212.465 226.421 212.031 227.353C211.573 228.275 210.84 229.03 209.932 229.514C209.549 229.721 209.13 229.855 208.697 229.909C209.088 229.78 209.468 229.619 209.833 229.428C210.727 228.954 211.447 228.208 211.888 227.298C212.33 226.388 212.471 225.361 212.29 224.365C212.208 223.945 212.092 223.532 211.944 223.131Z" fill="#263238"/>
<path d="M234.662 229.07C234.662 229.07 233.428 229.07 231.501 228.946C229.575 228.823 226.859 228.539 223.871 228.502C221.344 228.41 218.824 228.83 216.463 229.736C216.036 229.891 215.624 230.081 215.228 230.304C214.931 230.446 214.649 230.62 214.389 230.823L213.685 231.292L214.352 230.786C214.61 230.573 214.891 230.39 215.191 230.243C215.586 230.011 215.999 229.812 216.426 229.65C218.815 228.721 221.372 228.3 223.933 228.415C226.933 228.415 229.612 228.773 231.563 228.909C232.539 228.983 233.329 229.045 233.872 229.07H234.662Z" fill="#263238"/>
<path d="M258.356 247.701C258.356 247.701 257.911 247.318 257.121 246.602C256.726 246.244 256.232 245.812 255.639 245.367C255.047 244.923 254.405 244.33 253.615 243.775C251.83 242.423 249.962 241.186 248.022 240.07C243.271 237.359 238.133 235.393 232.786 234.243C230.608 233.761 228.402 233.423 226.18 233.23C225.229 233.107 224.365 233.095 223.612 233.058C222.859 233.02 222.204 233.058 221.674 233.058H220.019H221.674C222.204 233.058 222.908 233.058 223.612 233.058C224.316 233.058 225.229 233.058 226.18 233.206C228.409 233.394 230.623 233.724 232.81 234.193C235.485 234.771 238.116 235.53 240.688 236.465C243.235 237.466 245.71 238.641 248.096 239.984C250.037 241.098 251.906 242.335 253.689 243.688C254.467 244.231 255.109 244.812 255.701 245.293C256.294 245.775 256.775 246.194 257.158 246.528C257.973 247.293 258.356 247.701 258.356 247.701Z" fill="#263238"/>
<path d="M274.542 248.121C274.15 248.333 273.736 248.503 273.308 248.627C272.16 248.975 270.961 249.121 269.764 249.059C267.986 248.947 266.247 248.494 264.64 247.726C262.69 246.759 260.893 245.511 259.306 244.021C257.59 242.466 256.096 240.861 254.713 239.428C253.504 238.123 252.222 236.887 250.874 235.724C249.965 234.952 248.999 234.251 247.984 233.626C247.626 233.416 247.342 233.243 247.145 233.144L246.861 233.008C248.334 233.719 249.708 234.62 250.948 235.687C252.297 236.835 253.587 238.05 254.812 239.33C256.207 240.762 257.701 242.367 259.405 243.91C260.982 245.395 262.766 246.643 264.702 247.614C266.295 248.384 268.023 248.837 269.789 248.948C270.975 249.027 272.166 248.898 273.308 248.565C273.62 248.478 273.926 248.366 274.221 248.232L274.542 248.121Z" fill="#263238"/>
<path d="M295.742 242.182H295.322C295.038 242.182 294.643 242.182 294.149 242.182C292.859 242.184 291.573 242.317 290.309 242.577C289.033 242.853 287.791 243.267 286.605 243.812C286.161 244.009 285.79 244.194 285.556 244.33C285.431 244.405 285.298 244.467 285.161 244.515C285.609 244.217 286.08 243.952 286.568 243.725C288.914 242.592 291.496 242.038 294.1 242.108C294.648 242.096 295.197 242.121 295.742 242.182Z" fill="#263238"/>
<path d="M141.666 247.121L141.074 235.576C141.008 234.332 141.351 233.101 142.049 232.07L142.123 231.959C144.112 229.008 146.705 226.512 149.729 224.637L174.608 209.216C174.974 208.988 175.391 208.852 175.822 208.821C176.253 208.791 176.685 208.866 177.08 209.04C177.475 209.213 177.822 209.481 178.091 209.82C178.359 210.158 178.541 210.557 178.62 210.982C178.929 213.019 178.028 217.661 176.225 219.513C173.027 222.424 169.525 224.982 165.78 227.144L190.733 222.304C191.314 223.897 191.303 225.647 190.703 227.233C190.102 228.819 188.952 230.137 187.461 230.946L197.721 228.773C197.721 228.773 201.079 233.551 196.486 236.7C191.893 239.848 183.732 242.577 183.732 242.577C183.732 242.577 196.461 247.948 196.165 252.232C195.869 256.516 195.696 270.246 195.696 270.246L161.495 267.777L141.666 247.121Z" fill="#FFBE9D"/>
<path d="M166.681 226.39L166.446 226.526L165.73 226.884C165.113 227.205 164.212 227.65 163.125 228.23C162.039 228.81 160.804 229.6 159.421 230.502C158.038 231.403 156.495 232.329 155.026 233.465C154.307 234.016 153.731 234.731 153.347 235.552C153.017 236.332 152.865 237.175 152.902 238.021C153.002 239.456 153.276 240.874 153.717 242.244C154 243.186 154.195 244.154 154.297 245.133C154.34 245.49 154.34 245.85 154.297 246.207C154.297 246.207 154.297 245.824 154.211 245.133C154.08 244.169 153.865 243.219 153.569 242.293C153.093 240.913 152.799 239.477 152.692 238.021C152.648 237.147 152.8 236.273 153.137 235.465C153.539 234.611 154.135 233.863 154.878 233.28C155.61 232.716 156.372 232.192 157.162 231.712L159.322 230.317C160.693 229.428 161.952 228.65 163.026 228.082C164.101 227.514 165.039 227.094 165.681 226.847L166.409 226.526L166.681 226.39Z" fill="#EB996E"/>
<path d="M169.002 252.306C169.002 252.306 168.891 252.183 168.694 251.923L167.842 250.825L166.484 249.096C165.865 248.338 165.339 247.509 164.916 246.627C164.449 245.416 164.348 244.095 164.627 242.829C164.906 241.562 165.552 240.405 166.484 239.503C167.623 238.508 168.921 237.711 170.324 237.144C171.731 236.478 173.213 235.836 174.744 235.206C179.993 233.107 185.386 231.387 190.881 230.057C192.98 229.526 194.696 229.156 195.881 228.909L197.239 228.637L197.721 228.551C197.567 228.605 197.411 228.651 197.252 228.687L195.894 229.008C194.721 229.292 193.017 229.687 190.955 230.243C185.497 231.628 180.135 233.368 174.904 235.453C173.386 236.083 171.904 236.688 170.496 237.379C169.115 237.937 167.835 238.717 166.706 239.688C165.803 240.556 165.174 241.671 164.897 242.893C164.621 244.116 164.709 245.392 165.15 246.565C165.557 247.443 166.062 248.271 166.657 249.034C167.15 249.689 167.595 250.269 167.99 250.788C168.385 251.306 168.62 251.652 168.805 251.923C168.99 252.195 169.002 252.306 169.002 252.306Z" fill="#EB996E"/>
<path d="M195.474 236.971C195.296 237.103 195.105 237.219 194.906 237.317L193.313 238.157C191.968 238.86 190.091 239.799 187.955 240.725C186.134 241.514 184.271 242.202 182.374 242.787C181.646 243.009 181.053 243.17 180.633 243.268C180.424 243.336 180.209 243.385 179.991 243.416C180.186 243.311 180.393 243.232 180.609 243.182L182.312 242.614C183.757 242.12 185.72 241.379 187.856 240.49C189.992 239.601 191.869 238.651 193.239 238.021L194.857 237.255C195.053 237.14 195.259 237.045 195.474 236.971Z" fill="#EB996E"/>
<path d="M268.876 181.905C268.876 181.905 268.456 182.473 267.9 183.621C267.136 185.255 266.748 187.04 266.764 188.844C266.779 191.522 267.727 194.11 269.444 196.165C270.508 197.33 271.634 198.439 272.814 199.487C274.109 200.625 275.134 202.038 275.814 203.623C276.38 205.272 276.327 207.071 275.666 208.685C275.055 210.165 274.223 211.543 273.197 212.772C272.259 214.006 271.258 215.007 270.357 215.994C269.517 216.913 268.75 217.896 268.061 218.933C267.287 219.895 266.735 221.015 266.443 222.214C266.151 223.413 266.125 224.662 266.369 225.872C266.369 225.872 266.369 225.699 266.246 225.378C266.13 224.893 266.08 224.395 266.098 223.896C266.218 222.072 266.846 220.319 267.913 218.834C268.596 217.785 269.36 216.79 270.197 215.859C271.098 214.846 272.086 213.809 273.012 212.624C274.011 211.41 274.822 210.053 275.419 208.599C276.063 207.024 276.112 205.268 275.555 203.66C274.895 202.109 273.89 200.728 272.617 199.623C271.439 198.562 270.318 197.442 269.258 196.264C267.508 194.171 266.558 191.523 266.579 188.794C266.579 186.965 267.002 185.161 267.814 183.522C268.106 182.945 268.462 182.403 268.876 181.905Z" fill="#263238"/>
<path d="M280.197 181.312C280.197 181.312 279.777 181.893 279.222 183.041C278.462 184.672 278.078 186.452 278.098 188.251C278.1 190.935 279.049 193.532 280.777 195.585C281.74 196.721 282.95 197.758 284.136 198.906C285.438 200.034 286.464 201.444 287.136 203.03C287.698 204.684 287.65 206.484 287 208.105C286.383 209.582 285.551 210.959 284.531 212.192C283.58 213.426 282.58 214.414 281.691 215.414C280.851 216.331 280.079 217.309 279.382 218.34C278.336 219.792 277.696 221.497 277.53 223.279C277.514 223.938 277.572 224.596 277.703 225.242C277.647 225.081 277.602 224.916 277.567 224.748C277.457 224.267 277.411 223.773 277.431 223.279C277.551 221.453 278.175 219.696 279.234 218.204C279.926 217.161 280.693 216.171 281.531 215.241C282.42 214.229 283.407 213.192 284.346 212.006C285.341 210.792 286.148 209.435 286.741 207.981C287.386 206.407 287.438 204.653 286.889 203.043C286.222 201.499 285.218 200.123 283.951 199.018C282.716 197.869 281.568 196.832 280.58 195.659C278.828 193.561 277.879 190.91 277.901 188.177C277.907 186.353 278.33 184.554 279.135 182.917C279.434 182.348 279.79 181.81 280.197 181.312Z" fill="#263238"/>
<path d="M191.498 363.242C191.424 363.242 191.782 353.895 192.301 342.376C192.819 330.856 193.288 321.522 193.35 321.534C193.412 321.547 193.066 330.869 192.56 342.388C192.054 353.908 191.56 363.242 191.498 363.242Z" fill="#EB996E"/>
<path d="M170.027 275.148C167.671 272.882 165.437 270.491 163.335 267.987C165.692 270.252 167.926 272.643 170.027 275.148Z" fill="#EB996E"/>
<path d="M314.164 453.608L304.113 537.887H444.41L421.037 477.943L453.201 470.313C453.201 470.313 451.04 464.276 448.966 464.14C446.891 464.004 314.164 453.608 314.164 453.608Z" fill="#455A64"/>
<path d="M242.132 292.495C242.132 292.495 296.545 257.257 310.854 252.454C319.658 249.503 346.092 249.034 346.092 249.034L296.545 333.708L268.382 347.413L242.132 292.495Z" fill="#81B214"/>
<path d="M514.885 351.71C498.266 311.583 471.375 266.246 463.411 258.48C455.447 250.713 406.616 244.441 406.616 244.441L342.585 251.393L291.248 321.769L313.731 431.52L312.966 432.977C311.285 436.214 310.512 439.846 310.73 443.487C310.947 447.129 312.146 450.643 314.2 453.657L448.978 464.202L449.15 360.279L514.885 351.71Z" fill="#81B214"/>
<path d="M430.544 410.53C430.352 410.845 430.133 411.142 429.889 411.419C429.42 411.975 428.791 412.839 427.852 413.888C425.286 416.821 422.5 419.553 419.518 422.062C409.649 430.41 397.943 436.302 385.358 439.255C372.774 442.208 359.669 442.138 347.117 439.051C343.328 438.128 339.614 436.923 336.005 435.446C334.77 434.94 333.757 434.446 333.091 434.211C332.748 434.069 332.418 433.9 332.103 433.705C332.461 433.809 332.812 433.937 333.153 434.088C333.832 434.347 334.795 434.804 336.091 435.261C349.892 440.619 364.875 442.193 379.488 439.818C394.102 437.443 407.815 431.206 419.209 421.753C422.205 419.288 425.027 416.619 427.655 413.765C428.618 412.777 429.272 411.938 429.778 411.407C430.012 411.096 430.268 410.803 430.544 410.53Z" fill="#263238"/>
<path d="M449.113 356.365C449 356.04 448.917 355.705 448.866 355.365L448.274 352.5C447.767 349.932 447.039 346.327 446.199 341.919C444.508 332.918 442.187 320.584 439.631 306.965C439.31 305.261 439.001 303.57 438.693 301.903C438.384 300.236 438.001 298.607 437.828 296.964C437.403 293.823 437.287 290.647 437.483 287.482C437.685 284.624 438.119 281.788 438.779 279C439.401 276.583 440.198 274.215 441.162 271.913C442.563 268.584 444.375 265.444 446.557 262.566C447.298 261.517 447.99 260.801 448.409 260.282C448.61 260.005 448.846 259.755 449.113 259.541C449.113 259.541 448.916 259.825 448.508 260.369C448.101 260.912 447.459 261.603 446.767 262.714C444.672 265.621 442.932 268.767 441.582 272.086C440.65 274.373 439.886 276.725 439.298 279.123C438.659 281.884 438.246 284.692 438.063 287.519C437.887 290.644 438.015 293.778 438.446 296.878C438.619 298.508 439.026 300.113 439.31 301.817C439.594 303.521 439.927 305.163 440.248 306.879C442.718 320.46 444.989 332.807 446.632 341.87C447.422 346.302 448.051 349.92 448.496 352.488L448.977 355.377C449.049 355.702 449.095 356.032 449.113 356.365Z" fill="#263238"/>
<path d="M297.866 354.007C297.66 353.42 297.507 352.817 297.409 352.204C297.162 350.908 296.828 349.228 296.421 347.265C295.618 343.067 294.544 337.24 293.396 330.807C292.248 324.374 291.248 318.534 290.556 314.312C290.235 312.275 289.964 310.608 289.766 309.299C289.648 308.688 289.577 308.069 289.556 307.447C289.764 308.032 289.917 308.636 290.013 309.25C290.26 310.484 290.593 312.213 291.001 314.188C291.803 318.399 292.877 324.226 294.026 330.659C295.174 337.092 296.174 342.919 296.865 347.154C297.186 349.179 297.458 350.858 297.656 352.167C297.774 352.774 297.844 353.389 297.866 354.007Z" fill="#263238"/>
<path d="M453.744 296.335C454.101 293.944 454.667 291.589 455.435 289.297C456.005 286.949 456.782 284.656 457.756 282.445C457.391 284.835 456.821 287.19 456.052 289.482C455.492 291.832 454.72 294.125 453.744 296.335Z" fill="#FAFAFA"/>
<path d="M460.967 321.102C459.069 320.25 457.265 319.203 455.583 317.979C453.786 316.913 452.099 315.673 450.546 314.275C454.241 316.183 457.733 318.462 460.967 321.078V321.102Z" fill="#FAFAFA"/>
<path d="M474.597 311.534C474.309 309.399 474.359 307.232 474.746 305.113C474.921 302.967 475.425 300.86 476.24 298.866C476.425 298.866 475.832 301.706 475.388 305.2C474.943 308.694 474.783 311.534 474.597 311.534Z" fill="#FAFAFA"/>
<path d="M477.326 335.486C476.482 333.616 475.756 331.694 475.153 329.733C474.335 327.846 473.63 325.912 473.042 323.942C474.219 325.651 475.13 327.529 475.745 329.51C476.562 331.414 477.094 333.428 477.326 335.486Z" fill="#FAFAFA"/>
<path d="M466.757 350.303C463.386 347.788 460.276 344.942 457.472 341.808C460.85 344.314 463.961 347.161 466.757 350.303Z" fill="#FAFAFA"/>
<path d="M499.118 333.017C499.254 333.153 497.315 335.301 495.414 338.289C493.512 341.277 492.253 343.907 492.08 343.833C492.63 341.707 493.577 339.705 494.87 337.931C495.972 336.046 497.412 334.38 499.118 333.017Z" fill="#FAFAFA"/>
<path d="M463.831 272.259C462.496 271.489 461.278 270.533 460.213 269.419C459 268.464 457.924 267.346 457.016 266.098C458.348 266.881 459.569 267.84 460.646 268.95C461.855 269.9 462.927 271.014 463.831 272.259Z" fill="#FAFAFA"/>
<path d="M424.025 273.222C421.055 275.463 417.841 277.36 414.444 278.876C415.857 277.667 417.407 276.627 419.062 275.777C420.613 274.738 422.278 273.881 424.025 273.222Z" fill="#FAFAFA"/>
<path d="M417.061 308.076C415.755 306.786 414.604 305.348 413.629 303.792C412.481 302.361 411.508 300.798 410.728 299.137C413.184 301.857 415.31 304.858 417.061 308.076Z" fill="#FAFAFA"/>
<path d="M432.136 319.436C430.719 323.226 428.431 326.631 425.457 329.375C425.321 329.239 427.025 327.177 428.852 324.436C430.68 321.695 431.964 319.337 432.136 319.436Z" fill="#FAFAFA"/>
<path d="M395.504 321.979C395.319 322.041 394.269 319.275 392.578 316.102C390.886 312.929 389.145 310.534 389.294 310.41C392.312 313.671 394.438 317.656 395.467 321.979H395.504Z" fill="#FAFAFA"/>
<path d="M403.146 345.685C403.831 343.667 404.716 341.723 405.789 339.882C406.661 337.937 407.733 336.087 408.987 334.363C408.303 336.383 407.422 338.331 406.357 340.178C405.476 342.118 404.4 343.963 403.146 345.685Z" fill="#FAFAFA"/>
<path d="M428.717 363.464C427.998 361.272 427.478 359.02 427.161 356.735C426.647 354.492 426.341 352.207 426.248 349.907C426.969 352.094 427.49 354.343 427.803 356.624C428.318 358.871 428.624 361.161 428.717 363.464Z" fill="#FAFAFA"/>
<path d="M382.28 350.438C380.699 349.166 379.21 347.784 377.823 346.302C376.285 344.972 374.833 343.545 373.477 342.03C375.25 343.058 376.864 344.34 378.268 345.833C379.815 347.172 381.166 348.722 382.28 350.438Z" fill="#FAFAFA"/>
<path d="M361.686 316.114C358.908 319.181 355.817 321.95 352.463 324.374C355.241 321.307 358.332 318.539 361.686 316.114Z" fill="#FAFAFA"/>
<path d="M353.587 306.113C352.217 304.597 351.008 302.942 349.981 301.175C348.782 299.506 347.756 297.718 346.919 295.841C349.496 299.039 351.731 302.499 353.587 306.163V306.113Z" fill="#FAFAFA"/>
<path d="M322.176 323.35C320.517 321.496 319.018 319.505 317.694 317.398C316.201 315.418 314.883 313.311 313.756 311.102C315.415 312.948 316.91 314.935 318.225 317.04C319.727 319.022 321.049 321.133 322.176 323.35Z" fill="#FAFAFA"/>
<path d="M331.473 343.956C331.473 344.141 327.424 344.203 322.448 344.462C317.472 344.722 313.447 345.043 313.422 344.857C314.267 344.588 315.142 344.422 316.028 344.364C317.657 344.154 319.917 343.944 322.411 343.82C324.905 343.697 327.177 343.685 328.819 343.722C329.71 343.685 330.602 343.764 331.473 343.956Z" fill="#FAFAFA"/>
<path d="M333.758 284.185C333.93 284.185 333.227 287.285 332.585 291.087C331.943 294.89 331.597 298.014 331.412 298.002C331.348 293.292 332.143 288.61 333.758 284.185Z" fill="#FAFAFA"/>
<path d="M321.25 266.073C322.642 263.862 324.211 261.769 325.942 259.813C327.507 257.719 329.242 255.758 331.128 253.948C329.736 256.159 328.167 258.252 326.436 260.208C324.871 262.302 323.137 264.263 321.25 266.073Z" fill="#FAFAFA"/>
<path d="M308.706 282.963C308.57 283.087 305.657 280.123 301.804 276.79C297.952 273.456 294.668 270.863 294.779 270.715C295.611 271.095 296.387 271.585 297.088 272.172C298.458 273.16 300.298 274.642 302.237 276.308C304.175 277.975 305.817 279.667 306.978 280.901C307.643 281.509 308.224 282.203 308.706 282.963Z" fill="#FAFAFA"/>
<path d="M287.827 288.84C287.914 289.013 284.247 290.976 280.185 294.063C276.123 297.15 273.234 300.138 273.085 300.002C273.574 299.223 274.168 298.517 274.851 297.903C276.388 296.331 278.039 294.874 279.79 293.544C281.546 292.215 283.399 291.018 285.333 289.964C286.107 289.472 286.947 289.094 287.827 288.84Z" fill="#FAFAFA"/>
<path d="M259.813 306.175C259.64 306.175 259.665 302.829 259.504 298.705C259.344 294.581 259.072 291.297 259.257 291.297C259.846 293.723 260.144 296.209 260.146 298.705C260.345 301.199 260.233 303.709 259.813 306.175Z" fill="#FAFAFA"/>
<path d="M280.469 324.448C276.494 321.606 272.775 318.421 269.357 314.929C271.4 316.264 273.321 317.776 275.098 319.448C277.039 320.945 278.837 322.619 280.469 324.448Z" fill="#FAFAFA"/>
<path d="M313.126 298.273C310.814 299.103 308.435 299.731 306.014 300.15C303.637 300.782 301.207 301.195 298.754 301.385C301.07 300.554 303.454 299.926 305.878 299.508C308.253 298.883 310.678 298.469 313.126 298.273Z" fill="#FAFAFA"/>
<path d="M377.169 306.743C376.064 306.042 375.08 305.166 374.255 304.15C373.269 303.277 372.434 302.247 371.786 301.101C372.889 301.809 373.873 302.688 374.7 303.706C375.682 304.577 376.516 305.603 377.169 306.743Z" fill="#FAFAFA"/>
<path d="M405.9 290.063C404.825 291.466 403.581 292.73 402.196 293.828C400.945 295.086 399.548 296.189 398.035 297.113C400.367 294.45 403.017 292.082 405.924 290.063H405.9Z" fill="#FAFAFA"/>
<path d="M430.47 296.866C430.297 296.866 431.013 294.026 431.705 290.532C432.396 287.038 432.618 284.161 432.804 284.173C432.983 286.341 432.825 288.524 432.334 290.643C432.035 292.8 431.407 294.899 430.47 296.866Z" fill="#FAFAFA"/>
<path d="M304.237 336.585C303.456 335.721 302.84 334.721 302.422 333.634C301.819 332.639 301.401 331.543 301.187 330.4C301.983 331.259 302.611 332.26 303.039 333.35C303.627 334.349 304.033 335.444 304.237 336.585Z" fill="#FAFAFA"/>
<path d="M348.475 338.314C347.685 337.041 347.075 335.666 346.66 334.227C346.043 332.858 345.627 331.406 345.425 329.918C346.217 331.188 346.824 332.564 347.228 334.005C347.852 335.372 348.272 336.824 348.475 338.314Z" fill="#FAFAFA"/>
<path d="M372.601 326.165C372.465 326.041 373.181 325.004 374.206 323.843C375.23 322.683 376.156 321.831 376.292 321.942C376.428 322.053 375.7 323.103 374.687 324.263C373.675 325.424 372.798 326.276 372.601 326.165Z" fill="#FAFAFA"/>
<path d="M323.028 403.492C321.786 401.782 320.85 399.868 320.263 397.838C319.482 395.871 319.064 393.78 319.028 391.664C319.213 391.664 319.781 394.38 320.905 397.628C322.028 400.875 323.201 403.394 323.028 403.492Z" fill="#FAFAFA"/>
<path d="M341.857 404.9C342.165 403.07 342.679 401.281 343.388 399.566C343.892 397.784 344.604 396.069 345.512 394.455C345.205 396.279 344.696 398.064 343.993 399.776C343.481 401.561 342.764 403.28 341.857 404.9Z" fill="#FAFAFA"/>
<path d="M336.363 426.297C335.176 424.734 334.166 423.045 333.35 421.259C332.336 419.568 331.508 417.771 330.881 415.901C332.061 417.47 333.067 419.164 333.881 420.951C334.892 422.641 335.724 424.433 336.363 426.297Z" fill="#FAFAFA"/>
<path d="M371.242 420.148C369.108 419.821 367.03 419.198 365.069 418.296C363.038 417.594 361.121 416.6 359.377 415.345C361.4 416.018 363.382 416.805 365.316 417.703C367.339 418.396 369.319 419.213 371.242 420.148Z" fill="#FAFAFA"/>
<path d="M359.958 407.456C359.871 407.295 362.056 405.875 364.526 403.85C366.995 401.826 368.847 399.986 368.983 400.146C366.638 403.31 363.534 405.832 359.958 407.48V407.456Z" fill="#FAFAFA"/>
<path d="M389.022 416.481C388.911 416.629 386.664 415.247 383.713 413.814C380.762 412.382 378.243 411.58 378.293 411.407C382.259 412.106 385.965 413.858 389.022 416.481Z" fill="#FAFAFA"/>
<path d="M395.22 428.087C395.096 427.951 396.788 426.223 398.652 423.889C400.517 421.556 401.825 419.531 401.986 419.63C401.337 421.348 400.374 422.931 399.146 424.297C398.087 425.796 396.755 427.082 395.22 428.087Z" fill="#FAFAFA"/>
<path d="M331.819 450.509C329.766 449.528 327.81 448.354 325.979 447.002C324.022 445.836 322.183 444.484 320.485 442.965C322.538 443.946 324.494 445.12 326.325 446.471C328.282 447.638 330.122 448.99 331.819 450.509Z" fill="#FAFAFA"/>
<path d="M355.439 444.681C355.513 444.854 352.969 445.978 350.093 447.854C347.216 449.731 345.154 451.558 345.018 451.46C347.759 448.236 351.38 445.88 355.439 444.681Z" fill="#FAFAFA"/>
<path d="M376.564 454.015C375.521 452.975 374.628 451.795 373.909 450.509C373.018 449.337 372.306 448.039 371.798 446.657C373.742 448.878 375.348 451.374 376.564 454.065V454.015Z" fill="#FAFAFA"/>
<path d="M402.023 445.607C402.097 445.78 399.702 446.916 396.986 448.682C394.269 450.447 392.232 452.139 392.047 452.003C393.31 450.446 394.851 449.135 396.59 448.138C398.224 446.958 400.068 446.099 402.023 445.607Z" fill="#FAFAFA"/>
<path d="M413.789 434.557C413.616 434.643 412.888 433.322 411.505 432.248C410.122 431.174 408.752 430.631 408.801 430.458C409.961 430.442 411.08 430.886 411.912 431.693C412.893 432.361 413.567 433.391 413.789 434.557Z" fill="#FAFAFA"/>
<path d="M427.124 447.274C425.83 448.298 424.411 449.153 422.901 449.818C421.482 450.66 419.964 451.324 418.382 451.793C419.671 450.762 421.091 449.907 422.605 449.25C424.018 448.396 425.538 447.732 427.124 447.274Z" fill="#FAFAFA"/>
<path d="M439.137 454.015C438.952 454.015 439.631 451.188 440.076 447.706C440.52 444.224 440.569 441.348 440.767 441.348C441.106 443.48 441.085 445.655 440.705 447.78C440.54 449.933 440.01 452.041 439.137 454.015Z" fill="#FAFAFA"/>
<path d="M437.236 432.581C437.125 432.742 434.631 431.05 431.211 429.705C427.791 428.359 424.828 427.877 424.852 427.68C427.126 427.693 429.371 428.181 431.445 429.112C433.601 429.843 435.575 431.026 437.236 432.581Z" fill="#FAFAFA"/>
<path d="M410.468 367.946C406.767 366.05 403.271 363.779 400.035 361.168C403.732 363.071 407.227 365.342 410.468 367.946Z" fill="#FAFAFA"/>
<g opacity="0.3">
<path opacity="0.3" d="M347.845 439.323C347.451 438.552 347.33 437.671 347.503 436.823C347.676 435.975 348.132 435.21 348.796 434.656C350.166 433.585 351.818 432.937 353.55 432.791C362.39 431.409 371.86 433.804 380.145 430.433C385.701 428.161 390.022 423.531 393.282 418.518C396.541 413.506 399.122 408.024 402.344 402.962C405.233 398.406 408.925 394.06 413.962 392.109C419 390.158 425.556 391.405 428.285 396.06C431.013 400.714 429.186 406.431 426.63 411.024C419.407 423.988 406.394 433.162 392.207 437.533C378.021 441.903 362.748 441.792 348.105 439.199" fill="black"/>
</g>
<path d="M522.923 401.134L509.144 351.969L452.422 359.303L459.065 385.38L374.23 362.748L355.513 387.59L484.29 448.398C490.193 450.914 496.723 451.569 503.008 450.277C509.293 448.984 515.035 445.804 519.465 441.162C527.367 432.816 526.417 412.11 522.923 401.134Z" fill="#FFBE9D"/>
<path d="M288.469 354.007C286.568 353.5 284.272 353.093 282.864 354.451C282.308 355.106 281.981 355.924 281.932 356.782C281.883 357.64 282.115 358.49 282.592 359.204C283.469 360.674 284.136 360.884 286.457 361.674L309.039 366.798L317.682 360.032L288.469 354.007Z" fill="#EB996E"/>
<path d="M358.957 388.775C331.362 382.021 305.755 373.095 278.493 367.909C277.135 367.65 275.604 367.292 274.888 366.094C273.913 364.464 275.172 362.254 276.913 361.513C278.731 360.951 280.667 360.887 282.519 361.328C297.105 363.357 311.933 362.856 326.35 359.847C335.696 357.883 344.87 354.908 354.303 353.673C363.736 352.439 366.279 357.377 374.23 362.686" fill="#FFBE9D"/>
<path d="M374.231 362.748C371.935 358.721 368.596 355.387 364.566 353.097C360.535 350.807 355.962 349.645 351.327 349.735C345.685 349.92 340.289 351.969 334.844 353.439C329.399 354.908 323.448 355.822 318.189 353.747C316.176 352.957 314.299 351.735 312.151 351.438C310.003 351.142 307.434 352.192 307.052 354.315C306.755 355.92 307.793 357.451 308.916 358.649C312.867 362.822 325.448 367.465 335.363 366.971" fill="#FFBE9D"/>
<path d="M335.363 366.983C335.363 366.884 333.844 366.983 331.153 366.711C327.367 366.312 323.639 365.484 320.04 364.242C317.541 363.413 315.13 362.337 312.842 361.032C311.58 360.335 310.417 359.471 309.385 358.464C308.835 357.995 308.385 357.419 308.063 356.772C307.74 356.125 307.552 355.42 307.509 354.698C307.641 353.977 308.006 353.32 308.548 352.827C309.09 352.334 309.779 352.033 310.509 351.969C312.134 351.782 313.777 352.115 315.201 352.92C316.811 353.755 318.503 354.422 320.25 354.908C322.077 355.343 323.955 355.526 325.831 355.451C333.474 355.192 340.055 352.019 346.302 350.821C349.237 350.156 352.265 349.998 355.254 350.352C357.851 350.699 360.382 351.435 362.76 352.537C366.224 354.145 369.298 356.482 371.773 359.39C373.502 361.464 374.243 362.81 374.243 362.76C374.129 362.41 373.967 362.078 373.761 361.773C373.259 360.848 372.672 359.971 372.008 359.155C369.604 356.084 366.524 353.608 363.007 351.92C360.577 350.74 357.978 349.944 355.303 349.562C352.229 349.158 349.109 349.288 346.08 349.944C339.684 351.179 333.116 354.241 325.757 354.488C323.964 354.554 322.17 354.379 320.423 353.969C318.736 353.5 317.102 352.859 315.546 352.056C313.94 351.182 312.1 350.837 310.287 351.068C309.378 351.223 308.526 351.614 307.817 352.204C307.458 352.513 307.163 352.89 306.951 353.314C306.739 353.738 306.614 354.2 306.583 354.673C306.619 355.521 306.829 356.352 307.201 357.115C307.573 357.877 308.098 358.555 308.743 359.106C309.848 360.163 311.094 361.061 312.447 361.773C314.802 363.081 317.284 364.144 319.855 364.946C323.536 366.148 327.351 366.891 331.214 367.156C332.263 367.219 333.314 367.219 334.363 367.156C334.702 367.139 335.038 367.081 335.363 366.983Z" fill="#EB996E"/>
<path d="M484.327 393.22C484.327 393.22 484.228 393.22 484.043 393.134L483.24 392.85L480.326 391.788C477.857 390.899 474.425 389.726 470.609 388.528C466.794 387.331 463.3 386.343 460.732 385.676L457.732 384.898L456.904 384.688C456.719 384.688 456.621 384.602 456.633 384.59H456.917L457.756 384.75C458.473 384.898 459.51 385.133 460.781 385.441C463.337 386.084 466.831 387.034 470.659 388.232C474.486 389.429 477.906 390.639 480.363 391.565C481.598 392.035 482.573 392.43 483.253 392.714L484.03 393.047L484.327 393.22Z" fill="#EB996E"/>
<path d="M377.737 291.816C385.512 291.482 392.858 288.158 398.241 282.537C403.624 276.917 406.629 269.435 406.628 261.653V225.847L408.604 111.442L406.048 104.997L345.796 85.9828C327.275 84.5382 314.83 110.01 314.176 128.579C313.447 149.223 313.373 174.447 316.237 189.745C321.991 220.513 345.796 223.797 345.796 223.797L346.265 262.072C346.321 266.11 347.186 270.095 348.809 273.792C350.432 277.488 352.78 280.822 355.715 283.595C358.649 286.369 362.11 288.525 365.893 289.937C369.675 291.349 373.703 291.988 377.737 291.816Z" fill="#FFBE9D"/>
<path d="M322.176 148.643C322.196 149.678 322.618 150.665 323.353 151.393C324.089 152.122 325.08 152.535 326.115 152.544C326.621 152.567 327.127 152.49 327.602 152.315C328.078 152.141 328.514 151.873 328.886 151.529C329.257 151.184 329.556 150.768 329.765 150.307C329.974 149.845 330.089 149.347 330.103 148.84C330.08 147.807 329.657 146.824 328.922 146.098C328.186 145.372 327.197 144.96 326.164 144.951C325.658 144.924 325.152 145 324.676 145.172C324.199 145.344 323.762 145.61 323.391 145.955C323.019 146.299 322.72 146.714 322.511 147.176C322.303 147.637 322.189 148.136 322.176 148.643Z" fill="#263238"/>
<path d="M319.991 141.346C320.497 141.852 323.448 139.543 327.708 139.432C331.967 139.321 335.116 141.37 335.61 140.84C335.832 140.605 335.301 139.679 333.906 138.728C332.029 137.497 329.815 136.88 327.572 136.963C325.336 137.004 323.172 137.762 321.399 139.123C320.164 140.173 319.707 141.124 319.991 141.346Z" fill="#263238"/>
<path d="M363.526 148.643C363.545 149.676 363.966 150.661 364.699 151.389C365.431 152.117 366.419 152.532 367.452 152.544C367.959 152.571 368.466 152.495 368.943 152.322C369.421 152.149 369.858 151.882 370.23 151.536C370.602 151.191 370.901 150.774 371.109 150.311C371.317 149.848 371.429 149.348 371.44 148.84C371.424 147.807 371.004 146.822 370.27 146.095C369.536 145.368 368.547 144.957 367.514 144.951C367.008 144.924 366.502 145 366.025 145.172C365.549 145.344 365.112 145.61 364.74 145.955C364.369 146.299 364.069 146.714 363.861 147.176C363.652 147.637 363.538 148.136 363.526 148.643Z" fill="#263238"/>
<path d="M361.945 140.988C362.451 141.482 365.402 139.185 369.662 139.074C373.922 138.963 377.07 141.012 377.564 140.481C377.774 140.247 377.255 139.321 375.86 138.37C373.982 137.141 371.769 136.524 369.526 136.605C367.29 136.646 365.127 137.403 363.353 138.765C362.118 139.815 361.686 140.753 361.945 140.988Z" fill="#263238"/>
<path d="M347.339 173.04C347.339 172.805 344.685 172.41 340.376 171.978C339.289 171.904 338.252 171.719 338.042 170.978C337.917 169.855 338.141 168.721 338.684 167.731C339.635 165.064 340.622 162.274 341.672 159.347C345.82 147.408 348.796 137.617 348.315 137.444C347.833 137.271 344.067 146.828 339.931 158.755L337.067 167.188C336.696 168.422 336.017 169.854 336.622 171.472C336.789 171.853 337.042 172.191 337.361 172.459C337.68 172.727 338.057 172.917 338.462 173.015C339.067 173.168 339.69 173.238 340.314 173.225C344.648 173.336 347.327 173.287 347.339 173.04Z" fill="#263238"/>
<path d="M345.784 223.6C360.344 223.419 374.569 219.2 386.874 211.414C386.874 211.414 377.416 232.922 346.401 230.885L345.784 223.6Z" fill="#EB996E"/>
<path d="M360.377 124.357C360.834 125.505 365.081 124.838 370.094 125.307C375.107 125.776 379.206 127.023 379.848 125.962C380.12 125.455 379.391 124.381 377.724 123.307C375.51 121.99 373.026 121.194 370.459 120.98C367.892 120.766 365.309 121.14 362.908 122.072C361.081 122.813 360.192 123.752 360.377 124.357Z" fill="#263238"/>
<path d="M321.226 128.95C322.004 129.9 324.93 128.814 328.449 128.666C331.967 128.517 334.992 129.147 335.647 128.11C335.931 127.604 335.437 126.653 334.104 125.776C332.332 124.689 330.262 124.187 328.189 124.344C326.115 124.44 324.122 125.178 322.485 126.456C321.263 127.48 320.942 128.493 321.226 128.95Z" fill="#263238"/>
<path d="M335.165 88.0941C336.598 97.7681 340.431 106.929 346.314 114.741C352.198 122.553 359.945 128.766 368.847 132.814C368.312 130.345 367.785 127.875 367.267 125.406C374.897 138.024 391.096 148.593 401.517 152.865C404.739 154.186 408.863 153.001 411.789 151.124C415.888 148.507 416.135 142.63 415.271 137.839C412.592 122.85 403.702 109.442 392.121 99.5642C380.539 89.6868 366.415 83.0936 351.809 78.6735C347.944 77.5006 345.833 76.698 342.005 77.9944C338.178 79.2908 333.165 83.6492 335.017 87.2298" fill="#263238"/>
<path d="M396.627 130.16C405.467 161.829 393.775 197.03 396.788 229.773C397.454 237.07 400.109 245.515 406.258 249.528C409.295 251.504 409.962 250.257 413.456 250.948C422.382 252.677 430.815 248.935 439.73 250.664C447.78 252.232 460.583 256.837 465.658 250.38C470.732 243.923 464.88 236.329 459.917 230.008C454.953 223.686 448.286 218.278 445.841 210.611C443.199 202.376 446.051 193.536 447.286 184.967C451.508 155.717 441.113 126.085 423.827 102.095C417.802 93.7366 408.715 85.8223 400.541 79.5378C392.367 73.2533 373.884 67.9565 363.587 68.4257C353.29 68.8949 336.14 77.0684 331.942 88.6127" fill="#263238"/>
<path d="M362.439 112.084C362.378 112.195 363.057 112.652 364.366 113.405L366.699 114.763L364.711 112.862C359.873 108.357 355.74 103.15 352.451 97.4159C346.277 86.7853 345.339 76.5992 344.845 76.7227C344.685 76.7227 344.685 79.2662 345.5 83.2789C346.602 88.4817 348.51 93.4805 351.154 98.095C354.441 104.015 358.913 109.193 364.291 113.306L364.649 112.763C363.254 112.244 362.489 112.01 362.439 112.084Z" fill="#455A64"/>
<path d="M418.481 243.849C418.541 243.171 418.541 242.489 418.481 241.811C418.481 240.478 418.481 238.515 418.543 235.984C418.953 228.858 420.003 221.784 421.679 214.846C423.58 206.006 426.729 195.647 428.618 183.72C429.598 177.47 429.9 171.132 429.519 164.817C429.188 157.959 427.47 151.238 424.469 145.062C421.347 138.933 416.773 133.66 411.147 129.703C405.838 125.764 400.294 122.727 395.232 119.566C386.22 114.022 377.926 107.387 370.539 99.8112C365.585 94.6826 361.044 89.1712 356.957 83.3282C355.513 81.254 354.414 79.6242 353.685 78.5006C353.334 77.9067 352.92 77.352 352.451 76.8462C352.709 77.4778 353.023 78.0852 353.389 78.6612C354.019 79.8958 355.056 81.5256 356.426 83.5999C360.369 89.6082 364.836 95.2562 369.773 100.478C377.107 108.246 385.405 115.043 394.467 120.702C399.554 123.912 405.06 126.974 410.234 130.839C415.659 134.663 420.074 139.747 423.099 145.655C426.004 151.641 427.683 158.148 428.038 164.792C428.424 171.005 428.155 177.242 427.235 183.399C425.445 195.178 422.395 205.623 420.617 214.5C419.018 221.51 418.12 228.661 417.938 235.848C417.906 237.801 417.981 239.755 418.16 241.7C418.182 242.427 418.289 243.148 418.481 243.849Z" fill="#455A64"/>
<path d="M314.151 102.811C313.052 110.798 312.409 118.84 312.225 126.9C318.472 121.863 324.781 116.714 329.51 110.207C334.239 103.7 337.19 95.5639 335.955 87.625C331.431 88.9556 327.337 91.4547 324.086 94.8707C320.834 98.2867 318.541 102.499 317.435 107.083" fill="#263238"/>
<path d="M345.994 187.51C347.055 185.436 347.339 184.905 349.142 183.917C350.509 183.572 351.919 183.431 353.328 183.498C354.698 183.572 355.612 184.93 356.118 186.202C356.946 188.04 357.064 190.12 356.451 192.042C355.735 193.906 349.265 196.141 345.784 191.239" fill="#EB996E"/>
<path d="M351.315 194.486C351.668 194.464 352.023 194.464 352.377 194.486C353.314 194.442 354.216 194.119 354.969 193.56C355.994 192.629 356.655 191.365 356.834 189.992C356.978 189.176 356.915 188.336 356.649 187.551C356.384 186.765 355.925 186.059 355.315 185.498C353.98 184.45 352.32 183.904 350.623 183.955C349.941 183.981 349.273 184.152 348.662 184.456C348.051 184.761 347.512 185.191 347.08 185.72C346.505 186.466 346.127 187.345 345.981 188.276C345.955 188.632 345.888 188.984 345.783 189.325C345.682 188.972 345.661 188.601 345.722 188.239C345.79 187.234 346.136 186.268 346.722 185.448C347.144 184.886 347.673 184.412 348.277 184.053C348.985 183.64 349.781 183.403 350.599 183.362C351.484 183.328 352.368 183.441 353.216 183.695C354.127 183.947 354.971 184.398 355.686 185.016C356.436 185.666 356.974 186.526 357.229 187.486C357.482 188.348 357.529 189.257 357.365 190.14C357.21 190.921 356.94 191.674 356.562 192.375C356.171 193.147 355.56 193.786 354.806 194.212C354.053 194.638 353.191 194.832 352.327 194.77C351.972 194.759 351.624 194.662 351.315 194.486Z" fill="#263238"/>
<path d="M365.995 162.99C366.106 163.125 365.699 163.595 364.982 163.681C364.266 163.767 363.748 163.385 363.847 163.237C363.945 163.088 364.39 163.101 364.908 163.039C365.427 162.977 365.884 162.841 365.995 162.99Z" fill="#EB996E"/>
<path d="M372.798 162.632C372.626 162.632 372.391 162.298 372.292 161.817C372.193 161.335 372.23 160.903 372.403 160.866C372.576 160.829 372.811 161.187 372.922 161.681C373.033 162.175 373.021 162.632 372.798 162.632Z" fill="#EB996E"/>
<path d="M381.058 159.891C381.058 160.063 380.589 160.113 380.107 160.014C379.626 159.915 379.256 159.668 379.293 159.495C379.33 159.323 379.762 159.273 380.243 159.384C380.725 159.495 381.095 159.718 381.058 159.891Z" fill="#EB996E"/>
<path d="M369.526 169.854C369.353 169.854 369.205 169.459 369.205 168.978C369.205 168.496 369.353 168.101 369.526 168.101C369.699 168.101 369.847 168.484 369.847 168.978C369.847 169.472 369.699 169.854 369.526 169.854Z" fill="#EB996E"/>
<path d="M376.947 166.533C376.774 166.533 376.626 166.447 376.626 166.336C376.626 166.224 376.774 166.138 376.947 166.138C377.12 166.138 377.268 166.224 377.268 166.336C377.268 166.447 377.132 166.533 376.947 166.533Z" fill="#EB996E"/>
<path d="M323.806 164.187C323.806 164.36 323.189 164.484 322.571 164.187C321.954 163.891 321.571 163.335 321.707 163.224C321.843 163.113 322.287 163.36 322.831 163.607C323.374 163.854 323.818 164.002 323.806 164.187Z" fill="#EB996E"/>
<path d="M329.325 163.027C329.234 162.993 329.159 162.925 329.118 162.838C329.076 162.75 329.071 162.649 329.103 162.557C329.164 162.348 329.337 162.199 329.51 162.249C329.601 162.282 329.675 162.35 329.717 162.438C329.759 162.526 329.764 162.626 329.732 162.718C329.726 162.765 329.711 162.811 329.687 162.852C329.663 162.893 329.631 162.929 329.593 162.958C329.555 162.987 329.512 163.007 329.466 163.019C329.42 163.031 329.372 163.034 329.325 163.027Z" fill="#EB996E"/>
<path d="M326.374 171.027C326.201 171.027 326.016 170.756 325.967 170.385C325.917 170.015 325.967 169.682 326.189 169.657C326.411 169.632 326.547 169.916 326.609 170.299C326.67 170.682 326.559 171.003 326.374 171.027Z" fill="#EB996E"/>
<path d="M319.115 170.632C318.966 170.533 319.028 170.2 319.238 169.867C319.448 169.533 319.757 169.361 319.905 169.459C320.053 169.558 319.991 169.904 319.781 170.225C319.571 170.546 319.263 170.731 319.115 170.632Z" fill="#EB996E"/>
<path d="M291.433 446.99V504.279C291.432 509.09 290.283 513.831 288.082 518.108C285.881 522.386 282.691 526.077 278.778 528.874C273.653 532.529 267.515 534.493 261.22 534.492H184.67C178.939 534.496 173.325 532.869 168.484 529.8L165.842 528.096C161.546 525.375 158.007 521.614 155.55 517.162C153.094 512.709 151.801 507.709 151.791 502.625V446.99H291.433Z" fill="#263238"/>
<path d="M151.791 460.781H112.985V467.523L135.395 470.968C138.673 471.424 141.782 472.703 144.433 474.685C147.084 476.667 149.191 479.287 150.557 482.302C151.342 484.055 151.762 485.95 151.791 487.87C151.791 487.87 159.693 487.747 161.039 478.302C161.039 478.116 161.101 477.931 161.125 477.746C161.571 474.332 160.929 470.865 159.291 467.837C157.653 464.81 155.102 462.375 152.001 460.88L151.791 460.781Z" fill="#455A64"/>
<path d="M291.433 460.831H330.264V467.597L307.854 471.042C304.565 471.495 301.446 472.777 298.787 474.765C296.129 476.754 294.019 479.386 292.656 482.413C291.87 484.166 291.45 486.061 291.421 487.981C291.421 487.981 283.531 487.858 282.173 478.425L282.099 477.857C281.654 474.444 282.296 470.976 283.934 467.949C285.572 464.921 288.122 462.486 291.223 460.991L291.433 460.831Z" fill="#455A64"/>
<path d="M291.433 460.831C291.254 460.965 291.064 461.084 290.865 461.189C290.301 461.492 289.757 461.83 289.236 462.201C287.249 463.59 285.593 465.398 284.383 467.498C282.494 470.739 281.799 474.54 282.42 478.24C282.677 480.501 283.572 482.642 285.001 484.413C286.64 486.295 288.957 487.453 291.446 487.636L291.149 487.92C291.181 485.636 291.743 483.392 292.791 481.363C293.853 479.192 295.334 477.254 297.15 475.659C299.058 473.976 301.265 472.665 303.657 471.795C306.132 470.988 308.685 470.446 311.275 470.177L330.252 467.276L329.992 467.572C329.992 465.263 329.992 463.016 329.992 460.831L330.289 461.127L302.323 461.016L294.335 460.93H292.199C291.953 460.957 291.704 460.957 291.458 460.93H292.186H294.298L302.261 460.843L330.289 460.732H330.585V461.028C330.585 463.214 330.585 465.461 330.585 467.77V468.041H330.326L311.349 470.967C308.802 471.234 306.29 471.768 303.854 472.56C301.55 473.391 299.422 474.647 297.582 476.264C295.852 477.724 294.44 479.524 293.435 481.552C292.431 483.581 291.854 485.794 291.742 488.055V488.364H291.458C290.144 488.271 288.862 487.916 287.687 487.32C286.513 486.725 285.469 485.9 284.618 484.895C283.139 483.048 282.222 480.815 281.976 478.462C281.373 474.662 282.13 470.771 284.112 467.473C285.368 465.351 287.096 463.547 289.162 462.201C289.702 461.844 290.267 461.527 290.853 461.251C291.032 461.092 291.227 460.952 291.433 460.831Z" fill="#263238"/>
<path d="M288.939 448.521C288.841 448.597 288.733 448.659 288.618 448.706L287.655 449.188L283.951 451.003L281.247 452.299C280.247 452.756 279.124 453.176 277.938 453.657C275.555 454.596 272.889 455.793 269.802 456.732L264.999 458.337C263.32 458.88 261.529 459.287 259.702 459.794C256.06 460.868 252.072 461.596 247.899 462.461C238.775 464.04 229.538 464.866 220.279 464.93C211.02 464.872 201.782 464.046 192.659 462.461C188.486 461.609 184.498 460.868 180.856 459.806C179.028 459.287 177.238 458.88 175.559 458.337L170.756 456.744C167.669 455.806 165.002 454.608 162.607 453.682C161.372 453.188 160.311 452.768 159.311 452.324L156.607 451.027L152.903 449.212L151.94 448.731L151.631 448.546C151.752 448.568 151.869 448.61 151.977 448.669L152.964 449.089C153.866 449.509 155.137 450.077 156.742 450.793L159.471 452.028C160.471 452.46 161.595 452.855 162.78 453.336C165.175 454.225 167.842 455.398 170.941 456.3L175.744 457.855C177.411 458.386 179.201 458.781 181.016 459.275C184.658 460.325 188.634 461.028 192.807 461.868C201.896 463.427 211.095 464.253 220.316 464.337C229.537 464.254 238.736 463.428 247.825 461.868C251.998 461.028 255.973 460.312 259.616 459.263C261.431 458.769 263.221 458.374 264.888 457.843L269.691 456.287C272.777 455.386 275.457 454.213 277.84 453.312C279.074 452.842 280.148 452.435 281.161 452.015L283.877 450.781L287.606 449.077L288.594 448.645L288.939 448.521Z" fill="#455A64"/>
<path d="M289.025 453.262C289.025 453.262 288.927 453.336 288.704 453.448L287.741 453.941L284.037 455.756L281.333 456.991C280.333 457.436 279.21 457.855 278.037 458.349C275.641 459.288 272.975 460.485 269.888 461.424L265.085 463.016C263.406 463.56 261.628 463.967 259.801 464.486C256.097 465.56 252.158 466.288 247.985 467.152C238.866 468.732 229.632 469.558 220.377 469.622C211.119 469.559 201.881 468.733 192.758 467.152C188.572 466.288 184.584 465.56 180.942 464.486C179.114 463.979 177.324 463.572 175.645 463.029L170.842 461.436C167.755 460.498 165.088 459.3 162.706 458.362C161.471 457.88 160.397 457.46 159.397 457.003L156.73 455.781L153.026 453.966L152.063 453.485C151.84 453.373 151.729 453.312 151.742 453.299L152.087 453.423L153.075 453.855L156.853 455.559L159.582 456.793C160.594 457.213 161.705 457.621 162.903 458.09C165.286 458.991 167.965 460.152 171.052 461.065L175.855 462.609C177.522 463.14 179.312 463.535 181.139 464.029C184.769 465.078 188.757 465.794 192.918 466.634C202.011 468.193 211.214 469.019 220.439 469.103C229.66 469.025 238.86 468.199 247.948 466.634C252.109 465.794 256.084 465.091 259.727 464.041C261.541 463.547 263.332 463.152 265.011 462.621L269.801 461.065C272.901 460.152 275.567 458.991 277.963 458.09C279.197 457.621 280.272 457.213 281.272 456.781L284 455.546L287.778 453.843L288.766 453.423L289.025 453.262Z" fill="#455A64"/>
<path d="M262.69 536.27C272.876 534.689 278.111 529.133 281.075 519.256C282.162 516.209 282.244 512.895 281.309 509.798C280.223 506.786 277.333 504.254 274.123 504.378C270.246 504.538 267.481 508.205 265.9 511.786C264.32 515.367 263.147 519.33 260.097 521.737C257.048 524.145 251.331 523.429 250.677 519.589C250.67 518.573 250.563 517.559 250.356 516.564C249.491 514.243 245.812 514.366 244.182 516.256C242.553 518.145 242.503 520.861 242.577 523.343C242.651 525.824 242.738 528.491 241.343 530.553C239.281 533.627 234.972 533.973 231.268 533.998L209.389 534.208C209.389 534.208 213.093 536.023 222.897 536.023C236.206 535.986 262.69 536.27 262.69 536.27Z" fill="#81B214"/>
<path d="M220.377 534.171C213.056 534.294 205.29 534.306 199.042 530.467C195.091 528.059 191.782 524.182 187.214 523.491C185.904 523.218 184.539 523.457 183.399 524.157C182.843 524.517 182.429 525.058 182.229 525.689C182.029 526.319 182.054 527 182.3 527.614C180.275 526.849 178.732 525.231 176.991 523.91C175.25 522.589 172.991 521.639 170.966 522.416C169.934 522.914 169.107 523.756 168.627 524.797C168.147 525.837 168.044 527.012 168.336 528.121C168.681 529.212 169.255 530.216 170.019 531.068C170.784 531.92 171.721 532.598 172.768 533.059C174.872 533.973 177.097 534.576 179.374 534.85L232.057 535.85C232.045 534.516 220.377 534.171 220.377 534.171Z" fill="#81B214"/>
<path d="M179.263 537.887L179.374 534.985L262.69 536.27V537.887H179.263Z" fill="#455A64"/>
<path d="M257.369 504.279C256.383 502.628 255.826 500.756 255.749 498.835C255.671 496.914 256.075 495.003 256.924 493.278C257.677 491.784 259.221 490.303 260.813 490.809C262.406 491.315 262.727 493.278 262.69 494.859C262.604 498.303 260.122 505.267 257.369 504.254" fill="#81B214"/>
<path d="M208.586 400.924C208.66 400.924 208.512 401.517 208.586 402.579C208.729 404.075 209.126 405.537 209.759 406.9C210.763 408.943 211.546 411.087 212.093 413.296C212.481 416.14 211.765 419.025 210.093 421.358C208.512 423.889 206.623 425.976 205.389 428.161C204.787 429.18 204.318 430.271 203.993 431.408C203.744 432.396 203.673 433.421 203.783 434.433C203.906 435.924 204.528 437.329 205.549 438.421C205.961 438.783 206.394 439.122 206.845 439.434C206.845 439.434 206.697 439.434 206.426 439.298C206.047 439.115 205.694 438.882 205.376 438.607C204.231 437.52 203.505 436.064 203.327 434.495C203.174 433.421 203.229 432.327 203.487 431.273C203.796 430.071 204.265 428.917 204.882 427.84C206.117 425.581 208.018 423.457 209.549 420.988C211.143 418.788 211.849 416.067 211.525 413.37C210.999 411.2 210.272 409.083 209.352 407.048C208.738 405.631 208.399 404.11 208.352 402.566C208.351 402.151 208.396 401.737 208.488 401.332C208.498 401.192 208.532 401.054 208.586 400.924Z" fill="#263238"/>
<path d="M221.575 399.813C221.65 399.813 221.489 400.406 221.575 401.467C221.725 402.963 222.121 404.423 222.748 405.789C223.752 407.833 224.538 409.976 225.094 412.184C225.472 415.03 224.753 417.913 223.082 420.247C221.501 422.778 219.625 424.865 218.378 427.05C217.777 428.067 217.312 429.159 216.995 430.297C216.735 431.287 216.66 432.317 216.773 433.335C216.901 434.82 217.522 436.219 218.538 437.31C218.95 437.672 219.383 438.01 219.835 438.323C219.835 438.323 219.686 438.323 219.427 438.187C219.04 438.012 218.682 437.779 218.365 437.495C217.224 436.407 216.502 434.951 216.328 433.384C216.177 432.31 216.228 431.217 216.476 430.161C216.782 428.967 217.252 427.82 217.871 426.754C219.106 424.494 220.995 422.371 222.538 419.914C224.129 417.707 224.83 414.983 224.502 412.283C223.987 410.11 223.259 407.992 222.329 405.962C221.715 404.544 221.375 403.024 221.328 401.48C221.327 401.065 221.373 400.65 221.464 400.245C221.501 399.949 221.551 399.801 221.575 399.813Z" fill="#263238"/>
<path d="M234.515 398.727C234.589 398.727 234.441 399.319 234.515 400.381C234.686 401.884 235.103 403.348 235.749 404.715C236.75 406.754 237.533 408.894 238.083 411.098C238.461 413.944 237.741 416.826 236.07 419.16C234.49 421.692 232.613 423.778 231.379 425.964C230.774 426.981 230.305 428.072 229.984 429.211C229.728 430.202 229.657 431.231 229.774 432.248C229.899 433.732 230.516 435.131 231.527 436.224C231.942 436.588 232.379 436.926 232.836 437.236C232.836 437.236 232.675 437.236 232.416 437.1C232.032 436.919 231.675 436.687 231.354 436.409C230.213 435.321 229.491 433.865 229.317 432.297C229.166 431.223 229.216 430.131 229.465 429.075C229.78 427.887 230.249 426.746 230.86 425.68C232.095 423.408 233.996 421.284 235.527 418.827C237.115 416.62 237.82 413.898 237.503 411.197C236.979 409.024 236.247 406.908 235.317 404.875C234.709 403.456 234.37 401.936 234.317 400.393C234.319 399.978 234.369 399.563 234.465 399.159C234.441 398.862 234.515 398.727 234.515 398.727Z" fill="#263238"/>
<path d="M54.2516 538.332C54.2516 538.332 37.6081 457.028 54.2516 411.851H72.7717C72.7717 411.851 86.9088 459.497 72.7717 538.332H54.2516Z" fill="#81B214"/>
<g opacity="0.7">
<path opacity="0.7" d="M54.2516 538.332C54.2516 538.332 37.6081 457.028 54.2516 411.851H72.7717C72.7717 411.851 86.9088 459.497 72.7717 538.332H54.2516Z" fill="white"/>
</g>
<path d="M67.8948 369.65C70.9577 364.408 75.3273 360.05 80.5771 357.001C85.8269 353.952 91.7775 352.316 97.8481 352.253C94.9823 357.983 90.5225 362.762 85.005 366.017C79.4875 369.272 73.1472 370.863 66.7466 370.601" fill="#455A64"/>
<path d="M72.4753 335.758C68.2717 331.371 65.279 325.967 63.79 320.076C62.301 314.185 62.3667 308.008 63.9807 302.15C68.7037 306.478 72.0744 312.079 73.6867 318.278C75.2991 324.478 75.0842 331.011 73.068 337.091" fill="#455A64"/>
<path d="M55.8322 336.239C50.8599 334.232 46.501 330.956 43.1906 326.738C39.8802 322.52 37.734 317.507 36.9663 312.2C42.3399 313.969 47.0794 317.27 50.6023 321.696C54.1251 326.123 56.2776 331.483 56.7952 337.116" fill="#455A64"/>
<path d="M51.2759 300.137C50.4327 296.321 50.6058 292.35 51.778 288.621C52.9501 284.892 55.0803 281.536 57.9555 278.889C59.1078 282.855 59.0754 287.072 57.8623 291.021C56.6492 294.97 54.3084 298.477 51.1278 301.113" fill="#455A64"/>
<path d="M64.1288 401.381C64.5138 397.491 65.9125 393.77 68.1852 390.59C70.4579 387.409 73.5251 384.88 77.0805 383.256C76.9457 387.38 75.6082 391.375 73.2325 394.749C70.8567 398.123 67.5464 400.728 63.709 402.245" fill="#455A64"/>
<path d="M43.979 266.11C43.979 266.11 47.3126 278.568 51.2019 299.026L52.6835 307.064C53.1897 309.854 53.6218 312.781 54.1157 315.806C55.1405 321.831 55.9801 328.325 56.9184 335.141C58.6099 348.809 60.0792 363.872 60.9805 379.737C61.8818 395.603 62.0053 410.752 61.8077 424.519C61.6225 431.408 61.4991 437.952 61.141 444.064C60.9682 447.114 60.8694 450.077 60.6718 452.904C60.4743 455.732 60.2644 458.46 60.0668 461.053C58.4371 481.82 56.4863 494.55 56.4863 494.55C56.4863 494.55 56.4863 494.352 56.4863 493.957L56.7209 492.29C56.8937 490.735 57.1283 488.5 57.437 485.623C57.5975 484.179 57.7827 482.573 57.9679 480.808C58.1531 479.042 58.3136 477.104 58.4988 475.079C58.8445 470.955 59.3384 466.276 59.6471 461.09C59.8199 458.481 60.0051 455.764 60.2027 452.941C60.3879 450.101 60.4743 447.151 60.6225 444.101C60.9682 437.989 61.0669 431.458 61.2398 424.581C61.4003 410.826 61.2398 395.689 60.3632 379.836C59.4865 363.983 58.0049 348.969 56.3505 335.276C55.4368 328.461 54.6219 321.979 53.6095 315.941C53.128 312.929 52.7082 310.003 52.2143 307.2C51.7204 304.397 51.2389 301.73 50.7821 299.162C49.9055 294.038 48.9054 289.433 48.1152 285.383C47.6954 283.358 47.3126 281.469 46.9669 279.741C46.6212 278.012 46.2261 276.432 45.9051 275.012L44.4729 268.468C44.3124 267.74 44.2012 267.233 44.1025 266.764C44.0037 266.295 43.979 266.11 43.979 266.11Z" fill="#263238"/>
<path d="M84.9085 295.742C84.8902 295.894 84.8529 296.044 84.7973 296.187C84.6986 296.495 84.5751 296.915 84.4022 297.421L82.8466 302.236L81.6983 305.718C81.3156 306.953 80.8958 308.385 80.4636 309.879C79.587 312.879 78.5005 316.262 77.5127 320.078C77.0065 321.979 76.4633 323.967 75.9077 326.041C75.3521 328.115 74.8705 330.288 74.3149 332.535C73.179 337.017 72.2036 341.857 71.1295 346.944C69.1293 357.143 67.2896 368.428 65.9438 380.354C64.598 392.281 64.0054 403.702 63.7338 414.098C63.7338 419.296 63.5732 424.235 63.7338 428.853C63.7338 431.161 63.7338 433.396 63.8696 435.545C64.0054 437.693 64.0548 439.742 64.1412 441.718C64.2647 445.657 64.598 449.2 64.7956 452.311C64.919 453.867 65.0178 455.324 65.1166 456.658C65.2154 457.991 65.3759 459.201 65.4746 460.362C65.6845 462.522 65.8451 464.214 65.9562 465.399C65.9562 465.955 66.0303 466.387 66.0673 466.72C66.0783 466.868 66.0783 467.017 66.0673 467.165C66.0255 467.019 65.9965 466.871 65.9809 466.72C65.9809 466.399 65.8821 465.967 65.8204 465.424C65.6722 464.189 65.4746 462.547 65.2154 460.386L64.8079 456.744C64.6845 455.411 64.561 453.966 64.4252 452.41C64.1906 449.287 63.8325 445.743 63.672 441.804C63.5732 439.841 63.4621 437.779 63.3633 435.631C63.2646 433.483 63.2399 431.248 63.1782 428.939C63.03 424.309 63.1782 419.358 63.1782 414.123C63.4127 403.715 64.0548 392.269 65.3388 380.317C66.6229 368.366 68.549 357.068 70.5862 346.858C71.6851 341.771 72.6728 336.98 73.8334 332.449C74.4014 330.202 74.8952 328.017 75.4632 325.942C76.0311 323.868 76.5867 321.893 77.1177 319.991C78.1301 316.188 79.2413 312.805 80.155 309.817C80.6241 308.323 81.0686 306.941 81.4637 305.657C81.8588 304.372 82.3033 303.187 82.6984 302.199C83.4269 300.15 83.9331 298.495 84.3776 297.409C84.5751 296.89 84.7233 296.483 84.8344 296.174C84.842 296.028 84.8669 295.883 84.9085 295.742Z" fill="#263238"/>
<path d="M82.2172 304.94C78.1675 301.533 77.9205 295.187 79.9083 290.285C81.8962 285.383 85.6372 281.445 88.761 277.173C91.8847 272.901 94.5393 267.789 93.8232 262.554C93.5214 261.344 93.4336 260.09 93.5639 258.85C93.8232 257.615 95.0455 256.467 96.2431 256.837C97.4408 257.208 97.7371 258.418 97.9593 259.504C98.6514 262.886 98.8593 266.349 98.5767 269.789C99.3867 267.787 100.641 265.995 102.245 264.55C103.85 263.104 105.762 262.041 107.837 261.443C108.283 263.456 108.213 265.549 107.635 267.528C107.057 269.508 105.988 271.309 104.528 272.765C107.207 271.654 110.072 270.505 112.924 271.061C115.776 271.617 118.319 274.629 117.245 277.333C116.01 280.395 111.849 280.457 108.602 281.037C104.969 281.7 101.688 283.629 99.3422 286.482C96.4036 290.063 95.2307 294.742 92.8478 298.718C90.4648 302.693 85.9089 306.126 81.5134 304.718" fill="#81B214"/>
<path d="M47.4609 279.827C51.9427 277.037 53.0786 270.777 51.7946 265.653C50.5105 260.529 47.3744 256.097 44.8804 251.43C42.3863 246.762 40.4726 241.33 41.9172 236.243C42.3952 235.065 42.6586 233.81 42.695 232.539C42.6086 231.304 41.5715 229.971 40.3244 230.168C39.0774 230.366 38.6206 231.527 38.2502 232.638C37.0888 235.885 36.3986 239.282 36.2006 242.725C35.6816 240.627 34.6914 238.675 33.3051 237.017C31.9187 235.359 30.1728 234.039 28.1999 233.156C27.4753 235.088 27.2504 237.172 27.5461 239.214C27.8418 241.255 28.6485 243.19 29.8914 244.836C27.4221 243.355 24.7058 241.824 21.8166 241.972C18.9275 242.12 15.9766 244.75 16.6557 247.565C17.4212 250.775 21.5944 251.43 24.6934 252.504C28.1948 253.678 31.1713 256.047 33.1016 259.196C35.4968 263.147 36.0154 267.95 37.8057 272.222C39.596 276.493 43.6334 280.556 48.1893 279.753" fill="#81B214"/>
<path d="M42.1641 340.956C42.3502 341.203 42.5038 341.472 42.6209 341.758L43.8556 344.104C44.3741 345.129 44.9915 346.389 45.6459 347.883C46.3002 349.376 47.1151 351.043 47.8806 352.945C48.6461 354.846 49.5227 356.908 50.35 359.18C51.1772 361.452 52.0291 363.872 52.9058 366.44C54.5602 371.601 56.1776 377.354 57.5481 383.454C58.9186 389.553 59.8446 395.467 60.5114 400.85C60.8077 403.542 61.1164 406.11 61.2645 408.518C61.4127 410.925 61.5732 413.16 61.6596 415.209C61.746 417.259 61.7584 419.111 61.7831 420.741C61.8078 422.371 61.7831 423.766 61.7831 424.914C61.7831 426.062 61.6596 426.852 61.6596 427.556C61.6596 428.26 61.6596 428.47 61.5855 428.47C61.5513 428.162 61.5513 427.852 61.5855 427.544C61.5855 426.89 61.5855 426.013 61.5855 424.914C61.5855 423.815 61.5855 422.371 61.5115 420.741C61.4374 419.111 61.4374 417.271 61.2892 415.234C61.141 413.197 61.0546 410.95 60.82 408.555C60.5854 406.159 60.3262 403.616 60.0175 400.924C59.3137 395.566 58.3383 389.689 57.0172 383.639C55.6961 377.589 54.0417 371.823 52.4242 366.662C51.5723 364.094 50.7821 361.649 49.9549 359.402C49.1276 357.155 48.3251 355.056 47.5596 353.155C46.7941 351.253 46.0656 349.562 45.436 348.068C44.8063 346.574 44.2013 345.29 43.7445 344.253L42.6579 341.845C42.4654 341.565 42.3001 341.267 42.1641 340.956Z" fill="#263238"/>
<path d="M45.2261 352.846C47.4609 351.031 47.6954 347.574 46.6089 344.895C45.5224 342.215 43.5716 340.03 41.9048 337.672C40.238 335.313 38.8428 332.511 39.2749 329.671C39.4482 329.007 39.5067 328.318 39.4478 327.634C39.312 326.955 38.6576 326.325 38.0032 326.51C37.3489 326.695 37.176 327.362 37.0402 327.955C36.635 329.79 36.4936 331.673 36.6204 333.548C36.2017 332.452 35.5395 331.467 34.684 330.664C33.8284 329.862 32.8018 329.265 31.6817 328.918C31.4247 330.007 31.4461 331.144 31.7439 332.223C32.0416 333.301 32.6062 334.288 33.3855 335.091C31.9911 334.324 30.4046 333.977 28.8172 334.091C27.2739 334.363 25.854 335.993 26.3479 337.462C26.9899 339.153 29.2617 339.215 31.0273 339.561C32.9983 339.964 34.7667 341.043 36.0277 342.61C37.5958 344.586 38.2008 347.142 39.4601 349.327C40.7195 351.512 43.1642 353.439 45.6335 352.698" fill="#81B214"/>
</svg>
